<?xml version="1.0" encoding="UTF-8"?>
<svg width="134px" height="32px" viewBox="0 0 134 32" version="1.1" xmlns="http://www.w3.org/2000/svg" xmlns:xlink="http://www.w3.org/1999/xlink">
    <!-- Generator: Sketch 63.1 (92452) - https://sketch.com -->
    <title>logo/horizon</title>
    <desc>Created with Sketch.</desc>
    <g id="logo/horizon" stroke="none" stroke-width="1" fill="none" fill-rule="evenodd">
        <g id="Group">
            <path d="M27.9552,22.2455172 C27.9552,27.5108858 23.6227491,31.7793103 18.2784,31.7793103 L4.06785716e-13,31.7793103 L4.06785716e-13,25.4234483 L18.2784,25.4234483 C20.0598497,25.4234483 21.504,24.0006401 21.504,22.2455172 C21.504,20.4903944 20.0598497,19.0675862 18.2784,19.0675862 L11.8272,19.0675862 L11.8272,12.7117241 L18.2784,12.7117241 C20.0598497,12.7117241 21.504,11.2889159 21.504,9.5337931 C21.504,7.77867026 20.0598497,6.35586207 18.2784,6.35586207 L4.06785716e-13,6.35586207 L4.06785716e-13,1.21787025e-11 L18.2784,1.21787025e-11 C23.6227491,1.21787025e-11 27.9552,4.26842456 27.9552,9.5337931 C27.9552,11.9755705 27.0234739,14.2029476 25.4911851,15.8896552 C27.0234739,17.5763627 27.9552,19.8037398 27.9552,22.2455172 Z" id="Path" fill="#FE815F" opacity="0.800000012"></path>
            <path d="M2.13162821e-14,25.4234483 L15.6992587,25.4234483 C12.3645242,29.2828761 7.05522653,31.7793103 1.0752,31.7793103 C0.714260958,31.7793103 0.355765394,31.7702158 2.13162821e-14,31.7522759 L2.13162821e-14,25.4234483 L2.13162821e-14,25.4234483 Z M18.9879658,19.0675862 L12.9024,19.0675862 L12.9024,12.7117241 L18.9879658,12.7117241 C19.227734,13.7385452 19.3536,14.8013224 19.3536,15.8896552 C19.3536,16.977988 19.227734,18.0407651 18.9879658,19.0675862 Z M15.6992587,6.35586207 L1.15818466e-12,6.35586207 L1.15818466e-12,0.0270344512 C0.355765394,0.00909455861 0.714260958,0 1.0752,0 C7.05522653,0 12.3645242,2.4964342 15.6992587,6.35586207 L15.6992587,6.35586207 Z" id="Shape" fill="#000000" fill-rule="nonzero" opacity="0.119999997"></path>
            <path d="M3.71258579e-13,1.21929133e-11 C8.90724844,1.21929133e-11 16.128,7.11404094 16.128,15.8896552 C16.128,24.6652694 8.90724844,31.7793103 3.71258579e-13,31.7793103 L3.71258579e-13,25.4234483 C5.34434907,25.4234483 9.6768,21.1550237 9.6768,15.8896552 C9.6768,10.6242866 5.34434907,6.35586207 3.71258579e-13,6.35586207 L3.71258579e-13,1.21929133e-11 Z" id="Path" fill="#FF6238" fill-rule="nonzero"></path>
        </g>
        <path d="M55.1255316,10.2202423 C55.1255316,11.5634997 54.8763828,12.7225834 54.3780776,13.6975283 C53.8797725,14.6724732 53.2225973,15.4740825 52.4065323,16.1023803 C51.5904673,16.7306781 50.6696999,17.1928673 49.6442023,17.4889616 C48.6187047,17.785056 47.5787791,17.933101 46.5243943,17.933101 L40.8047462,17.933101 L40.8047462,2.59404487 L46.3510716,2.59404487 C47.4343437,2.59404487 48.5031561,2.72042472 49.5575409,2.97318821 C50.6119258,3.2259517 51.5507475,3.64481062 52.3740343,4.22977755 C53.1973211,4.81474448 53.861718,5.59829954 54.367245,6.58046623 C54.872772,7.56263293 55.1255316,8.77587947 55.1255316,10.2202423 Z M51.2691023,10.2202423 C51.2691023,9.35362459 51.128279,8.63506488 50.8466283,8.06454158 C50.5649775,7.49401828 50.1894488,7.03905082 49.7200309,6.69962557 C49.250613,6.36020031 48.7162068,6.11827317 48.1167963,5.9738369 C47.5173857,5.82940062 46.8999299,5.75718356 46.2644103,5.75718356 L44.4228569,5.75718356 L44.4228569,14.7266316 L46.1777489,14.7266316 C46.8421558,14.7266316 47.4812767,14.6508037 48.0951309,14.4991456 C48.7089851,14.3474875 49.250613,14.0983387 49.7200309,13.7516916 C50.1894488,13.4050445 50.5649775,12.9428554 50.8466283,12.3651103 C51.128279,11.7873652 51.2691023,11.0724163 51.2691023,10.2202423 Z M64.8099357,11.3035089 C64.8099357,10.7402074 64.6330039,10.2563532 64.279135,9.85193159 C63.9252662,9.44751001 63.3944708,9.24530225 62.686733,9.24530225 C62.340086,9.24530225 62.0223309,9.29946504 61.7334584,9.40779225 C61.4445858,9.51611946 61.1918261,9.66416443 60.9751717,9.85193159 C60.7585173,10.0396988 60.5851963,10.2599608 60.4552037,10.5127243 C60.325211,10.7654877 60.252994,11.02908 60.2385504,11.3035089 L64.8099357,11.3035089 Z M68.0814011,12.6684249 L68.0814011,13.1017316 C68.0814011,13.2461679 68.0741794,13.3833803 68.0597357,13.5133729 L60.2385504,13.5133729 C60.2674376,13.8166891 60.3577089,14.0911139 60.509367,14.3366556 C60.6610251,14.5821973 60.8560112,14.7952376 61.094331,14.975783 C61.3326509,15.1563283 61.599854,15.2971516 61.8959484,15.398257 C62.1920427,15.4993624 62.4989652,15.5499143 62.816725,15.5499143 C63.3800265,15.5499143 63.8566591,15.4451996 64.246637,15.235767 C64.636615,15.0263344 64.95437,14.7555204 65.1999117,14.423317 L67.6697597,15.983221 C67.1642328,16.719846 66.496225,17.2867499 65.6657164,17.6839496 C64.8352078,18.0811474 63.8711101,18.2797463 62.7733944,18.2797463 C61.9645512,18.2797463 61.1990504,18.1533665 60.476869,17.900603 C59.7546876,17.6478395 59.1227884,17.2795325 58.5811523,16.795671 C58.0395163,16.3118094 57.6134357,15.7160187 57.3028977,15.008281 C56.9923597,14.3005432 56.837093,13.4917122 56.837093,12.5817636 C56.837093,11.7007023 56.9887488,10.9027038 57.292065,10.1877443 C57.5953812,9.47278468 58.0070184,8.86616141 58.526989,8.36785625 C59.0469596,7.86955108 59.6608046,7.48318983 60.3685424,7.2087609 C61.0762801,6.93433197 61.8417809,6.79711957 62.6650677,6.79711957 C63.4594672,6.79711957 64.1888595,6.93072112 64.8532664,7.19792824 C65.5176733,7.46513535 66.088188,7.8514966 66.5648277,8.35702358 C67.0414674,8.86255055 67.4133853,9.47639553 67.6805924,10.1985769 C67.9477995,10.9207583 68.0814011,11.7440328 68.0814011,12.6684249 Z M82.4455172,13.4700423 C82.4455172,14.3077727 82.2794179,15.011889 81.9472145,15.5824123 C81.6150111,16.1529356 81.174487,16.6115139 80.6256292,16.958161 C80.0767713,17.304808 79.4520938,17.5539569 78.7515778,17.705615 C78.0510619,17.8572731 77.3325022,17.933101 76.5958771,17.933101 L70.4862531,17.933101 L70.4862531,2.59404487 L76.5958771,2.59404487 C77.1880659,2.59404487 77.7946891,2.65542937 78.4157651,2.77820021 C79.0368411,2.90097104 79.6001342,3.11040051 80.1056612,3.40649488 C80.6111881,3.70258925 81.0228254,4.10339391 81.3405852,4.60892089 C81.658345,5.11444786 81.8172225,5.75717966 81.8172225,6.53713557 C81.8172225,7.38930961 81.5861279,8.09342591 81.1239318,8.64950558 C80.6617357,9.20558525 80.0551125,9.60638992 79.3040438,9.85193159 L79.3040438,9.89526226 C79.7373527,9.9674804 80.145379,10.1010819 80.5281352,10.2960709 C80.9108913,10.4910599 81.2430898,10.7402087 81.5247405,11.0435249 C81.8063912,11.3468411 82.0302641,11.7007047 82.1963658,12.1051263 C82.3624676,12.5095479 82.4455172,12.9645153 82.4455172,13.4700423 Z M78.2424425,7.03543824 C78.2424425,6.51546763 78.0438456,6.13632809 77.6466458,5.89800823 C77.249446,5.65968837 76.660877,5.54053023 75.8809211,5.54053023 L74.0610331,5.54053023 L74.0610331,8.70366891 L76.0542438,8.70366891 C76.7475379,8.70366891 77.285555,8.56284566 77.6683111,8.28119491 C78.0510673,7.99954417 78.2424425,7.5842961 78.2424425,7.03543824 Z M78.7407451,13.1233969 C78.7407451,12.4878773 78.5024289,12.0473533 78.0257891,11.8018116 C77.5491494,11.5562699 76.9136393,11.4335009 76.1192398,11.4335009 L74.0610331,11.4335009 L74.0610331,14.943285 L76.1409051,14.943285 C76.4297777,14.943285 76.7294785,14.918009 77.0400165,14.8674563 C77.3505545,14.8169036 77.632201,14.7266323 77.8849645,14.5966396 C78.137728,14.466647 78.3435466,14.2824935 78.5024265,14.0441736 C78.6613064,13.8058538 78.7407451,13.4989313 78.7407451,13.1233969 Z M91.0683199,13.2317236 L90.6133479,13.2317236 C90.2233699,13.2317236 89.829787,13.2497779 89.4325872,13.2858869 C89.0353875,13.321996 88.6815239,13.3906022 88.3709859,13.4917076 C88.0604479,13.592813 87.8040773,13.740858 87.6018665,13.935847 C87.3996558,14.1308359 87.2985519,14.3872065 87.2985519,14.7049663 C87.2985519,14.9071771 87.345493,15.080498 87.4393765,15.2249343 C87.5332601,15.3693706 87.6524183,15.4849179 87.7968545,15.5715796 C87.9412908,15.6582414 88.1073901,15.7196259 88.2951572,15.755735 C88.4829244,15.791844 88.663467,15.8098983 88.8367906,15.8098983 C89.5589719,15.8098983 90.1114324,15.6113014 90.4941886,15.2141016 C90.8769447,14.8169019 91.0683199,14.2788848 91.0683199,13.6000343 L91.0683199,13.2317236 Z M84.5470545,8.61700758 C85.1825741,8.01037521 85.922799,7.55540776 86.7677512,7.25209157 C87.6127034,6.94877539 88.4756973,6.79711957 89.3567586,6.79711957 C90.2667071,6.79711957 91.0358188,6.90905601 91.6641166,7.13293224 C92.2924144,7.35680847 92.8015446,7.70345034 93.1915226,8.17286824 C93.5815005,8.64228615 93.8667579,9.23446601 94.0473033,9.94942559 C94.2278486,10.6643852 94.3181199,11.5129356 94.3181199,12.4951023 L94.3181199,17.933101 L91.0683199,17.933101 L91.0683199,16.7848383 L91.0033239,16.7848383 C90.728895,17.2325908 90.3136469,17.5792326 89.7575672,17.8247743 C89.2014876,18.070316 88.5984751,18.193085 87.9485119,18.193085 C87.515203,18.193085 87.0674573,18.1353113 86.6052612,18.0197623 C86.1430651,17.9042133 85.7205953,17.7164489 85.3378392,17.4564636 C84.9550831,17.1964783 84.6409389,16.8498365 84.3953972,16.4165276 C84.1498555,15.9832188 84.0270865,15.4488126 84.0270865,14.813293 C84.0270865,14.0333371 84.2401268,13.4050487 84.6662139,12.9284089 C85.0923009,12.4517692 85.6411505,12.0834622 86.3127792,11.8234769 C86.9844079,11.5634916 87.7318544,11.3901707 88.5551412,11.3035089 C89.378428,11.2168472 90.1800373,11.1735169 90.9599932,11.1735169 L90.9599932,11.0001943 C90.9599932,10.46578 90.7722289,10.0721971 90.3966946,9.81943359 C90.0211602,9.5666701 89.5589711,9.44029025 89.0101132,9.44029025 C88.5045862,9.44029025 88.0171211,9.54861584 87.5477032,9.76527026 C87.0782853,9.98192467 86.6774806,10.2419061 86.3452772,10.5452223 L84.5470545,8.61700758 Z M104.045855,17.933101 L104.045855,12.0401303 C104.045855,11.7368141 104.020579,11.4479459 103.970026,11.1735169 C103.919473,10.899088 103.836424,10.6571609 103.720875,10.4477283 C103.605326,10.2382957 103.442837,10.0721964 103.233405,9.94942559 C103.023972,9.82665475 102.76038,9.76527026 102.44262,9.76527026 C102.12486,9.76527026 101.846825,9.82665475 101.608505,9.94942559 C101.370185,10.0721964 101.171588,10.2419065 101.012708,10.4585609 C100.853828,10.6752153 100.73467,10.9243642 100.65523,11.2060149 C100.57579,11.4876657 100.536071,11.7801448 100.536071,12.0834609 L100.536071,17.933101 L96.9612906,17.933101 L96.9612906,7.1437649 L100.406079,7.1437649 L100.406079,8.63867291 L100.449409,8.63867291 C100.579402,8.40757487 100.749112,8.18009114 100.958545,7.95621491 C101.167977,7.73233868 101.413515,7.54096348 101.695166,7.38208357 C101.976817,7.22320367 102.283739,7.09321296 102.615943,6.99210757 C102.948146,6.89100217 103.30201,6.84045024 103.677544,6.84045024 C104.399725,6.84045024 105.01357,6.97044094 105.519097,7.23042624 C106.024624,7.49041154 106.432651,7.82622085 106.743189,8.23786425 C107.053727,8.64950764 107.2776,9.12252936 107.414814,9.65694359 C107.552028,10.1913578 107.620635,10.725764 107.620635,11.2601783 L107.620635,17.933101 L104.045855,17.933101 Z M121.898089,17.933101 L117.500027,17.933101 L113.968577,12.7550863 L113.903581,12.7550863 L113.903581,17.933101 L110.328801,17.933101 L110.328801,1.55410886 L113.903581,1.55410886 L113.903581,11.5201623 L113.968577,11.5201623 L117.413365,7.1437649 L121.724767,7.1437649 L117.565023,12.0184649 L121.898089,17.933101 Z" id="DeBank" fill="#19233C" fill-rule="nonzero"></path>
        <path d="M44.7609911,29.6820432 L44.7609911,26.4505198 L47.560943,22.2295397 L46.0241273,22.2295397 L44.129423,25.3663279 L42.255771,22.2295397 L40.6347462,22.2295397 L43.4346981,26.4505198 L43.4346981,29.6820432 L44.7609911,29.6820432 Z M49.592487,29.8294091 C49.9714279,29.8294091 50.3293165,29.7627436 50.6661528,29.6294126 C51.0029891,29.4960815 51.2942122,29.3118742 51.539822,29.0767905 C51.7854318,28.8417068 51.9801653,28.5592555 52.1240225,28.2294366 C52.2678796,27.8996177 52.3398082,27.5347117 52.3398082,27.1347186 C52.3398082,26.7347255 52.2678796,26.3715738 52.1240225,26.0452636 C51.9801653,25.7189535 51.7854318,25.4400109 51.539822,25.2084359 C51.2942122,24.9768609 51.0029891,24.7979167 50.6661528,24.671603 C50.3293165,24.5452894 49.9714279,24.4821326 49.592487,24.4821326 C49.2135462,24.4821326 48.8556576,24.5452894 48.5188213,24.671603 C48.1819849,24.7979167 47.8907619,24.9768609 47.6451521,25.2084359 C47.3995422,25.4400109 47.2048087,25.7189535 47.0609516,26.0452636 C46.9170944,26.3715738 46.8451658,26.7347255 46.8451658,27.1347186 C46.8451658,27.5347117 46.9170944,27.8996177 47.0609516,28.2294366 C47.2048087,28.5592555 47.3995422,28.8417068 47.6451521,29.0767905 C47.8907619,29.3118742 48.1819849,29.4960815 48.5188213,29.6294126 C48.8556576,29.7627436 49.2135462,29.8294091 49.592487,29.8294091 Z M49.592487,28.7767956 C49.3398598,28.7767956 49.1223197,28.7276737 48.9398666,28.6294298 C48.7574136,28.5311858 48.606539,28.4048722 48.4872428,28.2504889 C48.3679467,28.0961056 48.2784745,27.92067 48.2188264,27.7241822 C48.1591783,27.5276943 48.1293543,27.3312065 48.1293543,27.1347186 C48.1293543,26.9382307 48.1591783,26.7434973 48.2188264,26.5505181 C48.2784745,26.357539 48.3679467,26.1838577 48.4872428,26.0294744 C48.606539,25.8750911 48.7574136,25.7505319 48.9398666,25.6557966 C49.1223197,25.5610614 49.3398598,25.5136938 49.592487,25.5136938 C49.8451142,25.5136938 50.0626544,25.5610614 50.2451074,25.6557966 C50.4275604,25.7505319 50.578435,25.8750911 50.6977312,26.0294744 C50.8170274,26.1838577 50.9064995,26.357539 50.9661476,26.5505181 C51.0257957,26.7434973 51.0556198,26.9382307 51.0556198,27.1347186 C51.0556198,27.3312065 51.0257957,27.5276943 50.9661476,27.7241822 C50.9064995,27.92067 50.8170274,28.0961056 50.6977312,28.2504889 C50.578435,28.4048722 50.4275604,28.5311858 50.2451074,28.6294298 C50.0626544,28.7276737 49.8451142,28.7767956 49.592487,28.7767956 Z M55.3818612,29.8294091 C55.7608021,29.8294091 56.0888666,29.7329196 56.3660548,29.5399404 C56.643243,29.3469613 56.8379765,29.1241581 56.9502553,28.8715309 L56.9713076,28.8715309 L56.9713076,29.6820432 L58.171287,29.6820432 L58.171287,24.6294985 L56.9081508,24.6294985 L56.9081508,27.4083981 C56.9081508,27.5768163 56.8835898,27.7434801 56.8344678,27.9083895 C56.7853459,28.073299 56.7134173,28.2189105 56.6186821,28.3452241 C56.5239468,28.4715377 56.4011419,28.5750447 56.2502673,28.6557451 C56.0993927,28.7364455 55.9257115,28.7767956 55.7292237,28.7767956 C55.5257184,28.7767956 55.3625633,28.7346911 55.2397584,28.650482 C55.1169535,28.5662729 55.0204639,28.4592572 54.9502897,28.3294349 C54.8801154,28.1996126 54.8345022,28.054001 54.8134499,27.8926003 C54.7923976,27.7311996 54.7818715,27.5768163 54.7818715,27.4294504 L54.7818715,24.6294985 L53.5187353,24.6294985 L53.5187353,27.787339 C53.5187353,28.0469836 53.5538224,28.2996109 53.6239967,28.5452207 C53.6941709,28.7908305 53.8046953,29.0083706 53.9555699,29.197841 C54.1064445,29.3873115 54.2994237,29.5399404 54.5345073,29.6557279 C54.769591,29.7715154 55.0520423,29.8294091 55.3818612,29.8294091 Z M60.9501866,29.6820432 L60.9501866,26.9768266 C60.9501866,26.8856001 60.9677301,26.7627952 61.0028172,26.6084119 C61.0379044,26.4540285 61.1045699,26.3031539 61.2028138,26.1557881 C61.3010577,26.0084222 61.4378975,25.8821085 61.6133331,25.7768472 C61.7887686,25.6715858 62.0203436,25.6189552 62.308058,25.6189552 C62.3641974,25.6189552 62.4220911,25.6224639 62.4817392,25.6294813 C62.5413873,25.6364987 62.6133159,25.6505336 62.697525,25.6715858 L62.697525,24.513711 C62.6554204,24.4996762 62.6062985,24.4909044 62.5501591,24.4873957 C62.4940197,24.483887 62.441389,24.4821326 62.392267,24.4821326 C62.0554307,24.4821326 61.7606989,24.5733591 61.5080717,24.7558121 C61.2554445,24.9382651 61.0589566,25.1768575 60.9186082,25.4715893 L60.8975559,25.4715893 L60.8975559,24.6294985 L59.6870504,24.6294985 L59.6870504,29.6820432 L60.9501866,29.6820432 Z M68.8553139,29.6820432 C69.3395161,29.6820432 69.827227,29.6101147 70.3184466,29.4662575 C70.8096662,29.3224003 71.2517639,29.0995971 71.6447396,28.7978479 C72.0377153,28.4960987 72.3570081,28.1101404 72.6026179,27.6399731 C72.8482277,27.1698057 72.9710326,26.6084119 72.9710326,25.9557915 C72.9710326,25.2540492 72.8482277,24.66634 72.6026179,24.1926639 C72.3570081,23.7189878 72.0377153,23.3365383 71.6447396,23.0453152 C71.2517639,22.7540921 70.8096662,22.5453238 70.3184466,22.4190102 C69.827227,22.2926965 69.3395161,22.2295397 68.8553139,22.2295397 L66.213254,22.2295397 L66.213254,29.6820432 L68.8553139,29.6820432 Z M67.539547,28.5241684 L67.539547,23.3663623 L68.6447912,23.3663623 C68.9886449,23.3663623 69.3324987,23.4014494 69.6763524,23.4716237 C70.0202061,23.5417979 70.3307271,23.6716202 70.6079153,23.8610906 C70.8851035,24.0505611 71.1114154,24.3137144 71.286851,24.6505508 C71.4622866,24.9873871 71.5500044,25.4224673 71.5500044,25.9557915 C71.5500044,26.461046 71.4622866,26.8785827 71.286851,27.2084015 C71.1114154,27.5382204 70.8851035,27.7996195 70.6079153,27.9925986 C70.3307271,28.1855777 70.0202061,28.3224175 69.6763524,28.4031179 C69.3324987,28.4838182 68.9886449,28.5241684 68.6447912,28.5241684 L67.539547,28.5241684 Z M76.6130753,29.8294091 C77.5604274,29.8294091 78.283222,29.4925728 78.7814591,28.8189002 L77.9393683,28.1452276 C77.7990198,28.3487328 77.6200755,28.5083792 77.4025354,28.6241667 C77.1849953,28.7399542 76.9183332,28.7978479 76.6025492,28.7978479 C76.4200961,28.7978479 76.2446606,28.7662695 76.0762424,28.7031127 C75.9078242,28.6399559 75.7569496,28.5539925 75.6236186,28.4452224 C75.4902876,28.3364523 75.3832719,28.20663 75.3025715,28.0557554 C75.2218711,27.9048808 75.1745035,27.738217 75.1604687,27.555764 L79.0025079,27.555764 C79.0095253,27.4996246 79.013034,27.4434852 79.013034,27.3873458 L79.013034,27.2189277 C79.013034,26.7627952 78.9516316,26.3645564 78.8288267,26.0242114 C78.7060218,25.6838663 78.5358493,25.3996607 78.3183091,25.1715944 C78.100769,24.9435282 77.8428787,24.7716013 77.5446382,24.6558138 C77.2463977,24.5400263 76.9218419,24.4821326 76.5709707,24.4821326 C76.1920299,24.4821326 75.8394044,24.5470438 75.5130942,24.6768661 C75.186784,24.8066884 74.9043327,24.9891414 74.6657403,25.2242251 C74.4271479,25.4593088 74.2394319,25.7435144 74.1025921,26.076842 C73.9657524,26.4101696 73.8973325,26.7803387 73.8973325,27.1873493 C73.8973325,27.6013772 73.9657524,27.9715463 74.1025921,28.2978565 C74.2394319,28.6241667 74.4289023,28.8996006 74.6710034,29.1241581 C74.9131045,29.3487156 75.1990645,29.5223969 75.5288834,29.6452018 C75.8587023,29.7680067 76.2200996,29.8294091 76.6130753,29.8294091 Z M75.1604687,26.6505164 C75.1885384,26.2926278 75.3341499,25.9996504 75.5973033,25.7715841 C75.8604566,25.5435179 76.1815038,25.4294847 76.5604446,25.4294847 C76.7639499,25.4294847 76.9411398,25.4628175 77.0920144,25.529483 C77.242889,25.5961485 77.3674483,25.6856207 77.4656922,25.7978995 C77.5639361,25.9101782 77.6358647,26.0400006 77.681478,26.1873665 C77.7270912,26.3347323 77.7498979,26.4891157 77.7498979,26.6505164 L75.1604687,26.6505164 Z M81.6235155,29.6820432 L81.6235155,26.545255 L84.9076696,26.545255 L84.9076696,25.4294847 L81.6235155,25.4294847 L81.6235155,23.3874146 L85.1076661,23.3874146 L85.1076661,22.2295397 L80.2972225,22.2295397 L80.2972225,29.6820432 L81.6235155,29.6820432 Z M86.7181648,23.6716202 C86.9497398,23.6716202 87.1444733,23.5996916 87.3023653,23.4558345 C87.4602573,23.3119773 87.5392033,23.1312786 87.5392033,22.9137385 C87.5392033,22.6961984 87.4602573,22.5154997 87.3023653,22.3716426 C87.1444733,22.2277854 86.9497398,22.1558568 86.7181648,22.1558568 C86.4865898,22.1558568 86.295365,22.2312941 86.1444904,22.3821687 C85.9936158,22.5330433 85.9181785,22.7102332 85.9181785,22.9137385 C85.9181785,23.1172438 85.9936158,23.2944337 86.1444904,23.4453083 C86.295365,23.5961829 86.4865898,23.6716202 86.7181648,23.6716202 Z M87.360259,29.6820432 L87.360259,24.6294985 L86.0971228,24.6294985 L86.0971228,29.6820432 L87.360259,29.6820432 Z M94.1706683,29.6820432 L95.9180067,24.0926656 L95.939059,24.0926656 L97.6863973,29.6820432 L98.9705858,29.6820432 L101.149496,22.2295397 L99.7389937,22.2295397 L98.2653348,27.7031299 L98.2442825,27.7031299 L96.6337839,22.2295397 L95.2653863,22.2295397 L93.6233093,27.7031299 L93.602257,27.7031299 L92.1601765,22.2295397 L90.7075699,22.2295397 L92.8864798,29.6820432 L94.1706683,29.6820432 Z M103.128409,29.8083569 C103.486298,29.8083569 103.80559,29.7364283 104.086287,29.5925711 C104.366984,29.4487139 104.57049,29.2645066 104.696803,29.039949 L104.728382,29.039949 L104.728382,29.6820432 L105.907309,29.6820432 L105.907309,26.6084119 C105.907309,26.3557846 105.873976,26.1031574 105.80731,25.8505301 C105.740645,25.5979029 105.623103,25.3698366 105.454685,25.1663314 C105.286267,24.9628261 105.056446,24.7979167 104.765223,24.671603 C104.474,24.5452894 104.103831,24.4821326 103.654716,24.4821326 C103.268758,24.4821326 102.888062,24.5487981 102.51263,24.6821292 C102.137198,24.8154602 101.805625,25.0154568 101.51791,25.2821189 L102.170531,26.0505267 C102.331932,25.889126 102.535437,25.7522862 102.781047,25.6400074 C103.026656,25.5277287 103.282792,25.4715893 103.549454,25.4715893 C103.865239,25.4715893 104.137164,25.5470266 104.36523,25.6979012 C104.593296,25.8487758 104.707329,26.0821051 104.707329,26.3978892 L104.707329,26.5242028 C104.314354,26.5242028 103.912606,26.5435007 103.502087,26.5820965 C103.091568,26.6206923 102.71789,26.6996384 102.381054,26.8189346 C102.044217,26.9382307 101.768783,27.1101576 101.554752,27.3347152 C101.340721,27.5592727 101.233705,27.8610219 101.233705,28.2399628 C101.233705,28.5346945 101.295107,28.7820587 101.417912,28.9820553 C101.540717,29.1820518 101.6951,29.3434526 101.881062,29.4662575 C102.067024,29.5890624 102.270529,29.6767802 102.491578,29.7294109 C102.712627,29.7820415 102.924904,29.8083569 103.128409,29.8083569 Z M103.381036,28.8504786 C103.275775,28.8504786 103.170514,28.8399525 103.065252,28.8189002 C102.959991,28.7978479 102.865256,28.7627608 102.781047,28.7136388 C102.696838,28.6645169 102.628418,28.5996057 102.575787,28.5189053 C102.523156,28.438205 102.496841,28.3382067 102.496841,28.2189105 C102.496841,28.0294401 102.559998,27.8803198 102.686311,27.7715498 C102.812625,27.6627797 102.970517,27.5785706 103.159987,27.5189225 C103.349458,27.4592744 103.556472,27.4206786 103.781029,27.403135 C104.005587,27.3855915 104.219618,27.3768197 104.423124,27.3768197 L104.707329,27.3768197 L104.707329,27.555764 C104.707329,27.9557571 104.595051,28.2715412 104.370493,28.5031161 C104.145935,28.7346911 103.816117,28.8504786 103.381036,28.8504786 Z M108.665156,29.6820432 L108.665156,21.7242853 L107.40202,21.7242853 L107.40202,29.6820432 L108.665156,29.6820432 Z M111.48616,29.6820432 L111.48616,21.7242853 L110.223024,21.7242853 L110.223024,29.6820432 L111.48616,29.6820432 Z M115.443987,29.8294091 C116.391339,29.8294091 117.114134,29.4925728 117.612371,28.8189002 L116.77028,28.1452276 C116.629931,28.3487328 116.450987,28.5083792 116.233447,28.6241667 C116.015907,28.7399542 115.749245,28.7978479 115.433461,28.7978479 C115.251008,28.7978479 115.075572,28.7662695 114.907154,28.7031127 C114.738736,28.6399559 114.587861,28.5539925 114.45453,28.4452224 C114.321199,28.3364523 114.214183,28.20663 114.133483,28.0557554 C114.052783,27.9048808 114.005415,27.738217 113.99138,27.555764 L117.83342,27.555764 C117.840437,27.4996246 117.843946,27.4434852 117.843946,27.3873458 L117.843946,27.2189277 C117.843946,26.7627952 117.782543,26.3645564 117.659738,26.0242114 C117.536933,25.6838663 117.366761,25.3996607 117.149221,25.1715944 C116.931681,24.9435282 116.67379,24.7716013 116.37555,24.6558138 C116.077309,24.5400263 115.752754,24.4821326 115.401882,24.4821326 C115.022942,24.4821326 114.670316,24.5470438 114.344006,24.6768661 C114.017696,24.8066884 113.735244,24.9891414 113.496652,25.2242251 C113.25806,25.4593088 113.070343,25.7435144 112.933504,26.076842 C112.796664,26.4101696 112.728244,26.7803387 112.728244,27.1873493 C112.728244,27.6013772 112.796664,27.9715463 112.933504,28.2978565 C113.070343,28.6241667 113.259814,28.8996006 113.501915,29.1241581 C113.744016,29.3487156 114.029976,29.5223969 114.359795,29.6452018 C114.689614,29.7680067 115.051011,29.8294091 115.443987,29.8294091 Z M113.99138,26.6505164 C114.01945,26.2926278 114.165062,25.9996504 114.428215,25.7715841 C114.691368,25.5435179 115.012415,25.4294847 115.391356,25.4294847 C115.594862,25.4294847 115.772051,25.4628175 115.922926,25.529483 C116.073801,25.5961485 116.19836,25.6856207 116.296604,25.7978995 C116.394848,25.9101782 116.466776,26.0400006 116.51239,26.1873665 C116.558003,26.3347323 116.580809,26.4891157 116.580809,26.6505164 L113.99138,26.6505164 Z M120.864946,29.7873046 C121.005295,29.7873046 121.152661,29.7750241 121.307044,29.7504631 C121.461427,29.7259021 121.594758,29.6925694 121.707037,29.6504648 L121.664933,28.6610082 C121.587741,28.6960953 121.500023,28.7224106 121.401779,28.7399542 C121.303535,28.7574977 121.212309,28.7662695 121.1281,28.7662695 C120.847403,28.7662695 120.666704,28.6925866 120.586004,28.5452207 C120.505303,28.3978548 120.464953,28.2118931 120.464953,27.9873355 L120.464953,25.6400074 L121.728089,25.6400074 L121.728089,24.6294985 L120.464953,24.6294985 L120.464953,23.1663657 L119.222869,23.1663657 L119.222869,24.6294985 L118.338674,24.6294985 L118.338674,25.6400074 L119.222869,25.6400074 L119.222869,27.9978617 C119.222869,28.2434715 119.245676,28.4732921 119.291289,28.6873235 C119.336902,28.9013549 119.421112,29.0908253 119.543916,29.2557348 C119.666721,29.4206442 119.833385,29.5504666 120.043908,29.6452018 C120.254431,29.739937 120.52811,29.7873046 120.864946,29.7873046 Z" id="YourDeFiWallet" fill="#19233C" fill-rule="nonzero" opacity="0.600000024"></path>
    </g>
</svg>