<svg xmlns="http://www.w3.org/2000/svg" width="139" height="46" fill="none"
    xmlns:v="https://vecta.io/nano">
    <path d="M68.367 31.896h-6.588l-1.323 4.131c-.162.072-.333.126-.513.162s-.396.054-.648.054c-.45 0-.819-.099-1.107-.297s-.432-.495-.432-.891c0-.198.027-.387.081-.567.054-.198.126-.414.216-.648l.972-2.916 1.35-3.807 1.458-3.915 1.269-3.321c.18-.108.459-.207.837-.297.378-.108.765-.162 1.161-.162.522 0 .99.072 1.404.216s.693.396.837.756l1.296 3.51 1.404 4.023 1.35 4.077 1.161 3.618c-.162.18-.378.324-.648.432-.252.126-.558.189-.918.189-.486 0-.837-.09-1.053-.27-.216-.198-.396-.522-.54-.972l-1.026-3.105zm-3.294-9.963l-.594 1.647-.675 1.944-.702 2.052-.675 1.998h5.319l-.729-2.16-.702-2.106-.621-1.863-.486-1.512h-.135zm18.162 12.879c-.342.216-.765.396-1.269.54-.486.144-1.071.216-1.755.216a7.85 7.85 0 0 1-2.268-.324 5.22 5.22 0 0 1-1.863-1.08c-.54-.504-.972-1.152-1.296-1.944-.306-.792-.459-1.764-.459-2.916 0-1.044.153-1.953.459-2.727.324-.792.765-1.449 1.323-1.971.576-.54 1.251-.945 2.025-1.215.792-.27 1.665-.405 2.619-.405.882 0 1.692.117 2.43.351.756.216 1.368.477 1.836.783.306.198.54.423.702.675.18.252.27.558.27.918v10.638c0 .9-.162 1.674-.486 2.322-.306.648-.738 1.17-1.296 1.566-.54.414-1.188.711-1.944.891-.756.198-1.566.297-2.43.297-.918 0-1.71-.09-2.376-.27s-1.152-.36-1.458-.54c-.558-.342-.837-.792-.837-1.35 0-.306.063-.567.189-.783.126-.198.288-.36.486-.486.414.288.963.549 1.647.783a6.71 6.71 0 0 0 2.187.351c1.134 0 2.007-.234 2.619-.702.63-.45.945-1.188.945-2.214v-1.404zm-2.619-1.458c.612 0 1.125-.09 1.539-.27s.765-.396 1.053-.648v-6.534c-.27-.162-.603-.306-.999-.432-.396-.144-.864-.216-1.404-.216-1.098 0-1.98.333-2.646.999s-.999 1.674-.999 3.024c0 .738.09 1.368.27 1.89s.423.945.729 1.269.666.558 1.08.702c.432.144.891.216 1.377.216zm13.822.837c.63 0 1.179-.063 1.647-.189s.801-.261.999-.405v-3.429l-2.943.297c-.828.09-1.449.279-1.863.567-.414.27-.621.693-.621 1.269 0 .594.225 1.062.675 1.404.45.324 1.152.486 2.106.486zm-.054-11.205c1.674 0 3.006.369 3.996 1.107.99.72 1.485 1.863 1.485 3.429v6.291c0 .414-.099.738-.297.972-.18.216-.432.423-.756.621-.468.27-1.071.504-1.809.702s-1.593.297-2.565.297c-1.746 0-3.114-.342-4.104-1.026-.972-.684-1.458-1.692-1.458-3.024 0-1.188.378-2.097 1.134-2.727.774-.63 1.881-1.017 3.321-1.161l3.753-.378v-.594c0-.792-.261-1.368-.783-1.728-.504-.36-1.215-.54-2.133-.54-.72 0-1.413.099-2.079.297s-1.26.423-1.782.675c-.18-.144-.333-.315-.459-.513a1.37 1.37 0 0 1-.189-.702c0-.306.072-.558.216-.756.162-.198.405-.369.729-.513.504-.252 1.08-.432 1.728-.54.648-.126 1.332-.189 2.052-.189zm18.415.108c.396 0 .72.099.972.297.252.18.378.477.378.891 0 .216-.072.585-.216 1.107l-.54 1.782-.783 2.214-.918 2.376-.972 2.241-.864 1.809c-.144.09-.36.171-.648.243-.288.09-.612.135-.972.135-.882 0-1.458-.243-1.728-.729-.252-.45-.585-1.152-.999-2.106l-1.269-3.159-1.269-3.429-.945-2.97c.162-.198.378-.36.648-.486a1.81 1.81 0 0 1 .864-.216c.414 0 .738.099.972.297.252.18.45.504.594.972l1.485 4.644.378 1.134.432 1.269.432 1.215.351.972h.135l1.755-5.103 1.458-5.103c.342-.198.765-.297 1.269-.297zm6.101 8.019c.252 1.026.738 1.791 1.458 2.295.738.486 1.674.729 2.808.729.756 0 1.449-.117 2.079-.351s1.134-.486 1.512-.756c.504.288.756.693.756 1.215 0 .306-.117.594-.351.864-.234.252-.558.477-.972.675-.396.18-.873.324-1.431.432-.54.108-1.125.162-1.755.162-1.044 0-1.998-.144-2.862-.432-.846-.288-1.575-.72-2.187-1.296s-1.089-1.287-1.431-2.133c-.324-.846-.486-1.827-.486-2.943 0-1.08.162-2.025.486-2.835.324-.828.765-1.512 1.323-2.052.558-.558 1.215-.981 1.971-1.269s1.566-.432 2.43-.432 1.647.144 2.349.432c.72.27 1.332.657 1.836 1.161.522.486.918 1.071 1.188 1.755.288.684.432 1.431.432 2.241 0 .45-.108.783-.324.999-.216.198-.531.333-.945.405l-7.884 1.134zm3.348-5.94c-.99 0-1.818.333-2.484.999-.648.666-.99 1.62-1.026 2.862l6.642-.945c-.072-.81-.369-1.494-.891-2.052-.522-.576-1.269-.864-2.241-.864z" fill="#00a490"/>
    <g fill-rule="evenodd">
        <path d="M24.5 45.083l-.437-.339-3.466-2.775c-2.73-2.852-6.521-6.974-8.956-12.843S8.6 17.353 8.522 13.436c-.069-3.442.237-6.157.809-9.451l1.862 1.325c.1.072 2.475 1.771 5.433 4.863 2.361 2.467 5.495 6.263 7.874 11.043 2.379-4.78 5.513-8.576 7.874-11.043 2.958-3.091 5.333-4.792 5.433-4.863l1.862-1.325c.571 3.293.878 6.009.809 9.451-.078 3.919-.684 9.821-3.118 15.691s-6.227 9.991-8.956 12.843c-.674.706-2.417 1.976-3.466 2.775l-.437.338z" fill="#00aa96"/>
        <path d="M.159 15.693L0 13.436l2.128.854c.373.148 8.517 3.479 14.873 10.886l-.017-1.043c0-8.709 2.894-16.828 7.516-24.133 4.622 7.304 7.516 15.424 7.516 24.133a34.62 34.62 0 0 1-.017 1.043c6.356-7.407 14.5-10.736 14.873-10.886L49 13.436l-.159 2.257c-2.775 40.409-45.907 40.409-48.682 0z" fill="url(#A)"/>
        <path d="M21.98 36.258c-.584 0-.819.223-.819.772 0 1.338 1.5 2.424 3.343 2.424s3.338-1.088 3.338-2.424c0-.549-.237-.772-.819-.772a7.4 7.4 0 0 0-.928.092l-.029.005a10.93 10.93 0 0 1-1.563.14c-.52-.008-1.049-.056-1.564-.14-.316-.053-.638-.087-.958-.097z" fill="#00aa96"/>
    </g>
    <path d="M15.973 36.406c1.485 0 2.688-1.187 2.688-2.651s-1.203-2.651-2.688-2.651-2.688 1.187-2.688 2.651 1.204 2.651 2.688 2.651zm17.051 0c1.485 0 2.688-1.187 2.688-2.651s-1.203-2.651-2.688-2.651-2.688 1.187-2.688 2.651 1.203 2.651 2.688 2.651z" fill="#00aa96"/>
    <defs>
        <linearGradient id="A" x1="24.5" y1="-4.6" x2="24.5" y2="46" gradientUnits="userSpaceOnUse">
            <stop stop-color="#00b59c"/>
            <stop offset="1" stop-color="#8ef8ab"/>
        </linearGradient>
    </defs>
</svg>