<?xml version="1.0" encoding="UTF-8"?>
<svg width="108" height="24" viewBox="0 0 108 24" fill="none"
    xmlns="http://www.w3.org/2000/svg">
    <path fill-rule="evenodd" clip-rule="evenodd" d="M12.3697 0C5.53081 0 0 5.37931 0 12C0 18.6207 5.53081 24 12.3697 24C19.2085 24 24.7393 18.6345 24.7393 12C24.7393 5.37931 19.1943 0 12.3697 0ZM13.3649 12.5655L17.7014 16.7724C18.0569 17.1172 18.0142 17.6828 17.6161 17.9724C16.2796 18.9931 14.6019 19.6 12.782 19.6C8.16114 19.6 4.46446 15.7103 5.00474 11.131C5.40284 7.61379 8.34597 4.78621 11.9858 4.44138C14.1327 4.23448 16.1232 4.86897 17.6588 6.04138C18.0427 6.33103 18.0569 6.88276 17.7156 7.21379L13.3649 11.4345C13.0379 11.7517 13.0379 12.2483 13.3649 12.5655ZM26.3744 17.1724C26.3744 16.1931 27.1706 15.4069 28.1801 15.4069C29.1896 15.4069 30 16.1931 30 17.1724C30 18.1517 29.1896 18.9379 28.1801 18.9379C27.1706 18.9379 26.3744 18.1517 26.3744 17.1724Z" fill="#69E2DC"/>
    <path fill-rule="evenodd" clip-rule="evenodd" d="M32 17.1648V6.83515C32 5.66733 32.6298 5 33.6884 5H37.6817C40.9916 5 42.7739 6.69613 42.7739 9.54618C42.7739 11.1728 42.0503 12.6187 40.7102 13.3277L42.3317 16.2056C42.6265 16.7061 42.6935 16.998 42.6935 17.4012C42.6935 18.3327 41.9966 19 41.005 19C40.1876 19 39.8392 18.708 39.263 17.6375L37.2931 13.9672H35.3635V17.1787C35.3635 18.3327 34.7471 19 33.675 19C32.6164 18.9861 32 18.3188 32 17.1648ZM37.3467 11.5482C38.593 11.5482 39.33 10.7974 39.33 9.60179C39.33 8.43396 38.5528 7.64151 37.3467 7.64151H35.3635V11.5482H37.3467ZM46.2848 15.3297C45.3333 15.3297 44.5829 16.1221 44.5829 17.1092C44.5829 18.0963 45.3333 18.8888 46.2848 18.8888C47.2362 18.8888 48 18.0963 48 17.1092C48 16.1221 47.2362 15.3297 46.2848 15.3297Z" fill="#FFB8D2"/>
    <path fill-rule="evenodd" clip-rule="evenodd" d="M51 6.84985V17.024C51 18.2012 51.5935 18.8739 52.6258 18.8879H58.4839C59.3613 18.8879 59.929 18.3554 59.929 17.4585C59.929 16.5475 59.3484 16.029 58.4839 16.029H54.2516V13.2262H58.2903C59.1032 13.2262 59.6065 12.7357 59.6065 11.9229C59.6065 11.0961 59.0774 10.6196 58.2903 10.6196H54.2516V7.85886H58.4839C59.3484 7.85886 59.929 7.34034 59.929 6.42943C59.929 5.51852 59.3613 5 58.4839 5H52.6258C51.6065 5 51 5.67267 51 6.84985ZM63.3484 15.4124C62.4323 15.4124 61.7097 16.2112 61.7097 17.2062C61.7097 18.2012 62.4323 19 63.3484 19C64.2645 19 65 18.2012 65 17.2062C65 16.2112 64.2645 15.4124 63.3484 15.4124Z" fill="#F4DB62"/>
    <path fill-rule="evenodd" clip-rule="evenodd" d="M67 17.3408C67 17.0529 67.0963 16.6278 67.2477 16.2165L70.6055 7.01567C71.1009 5.63075 71.9404 5 73.3028 5C74.7339 5 75.5596 5.60333 76.0826 7.01567L79.4679 16.2165C79.633 16.6552 79.6881 16.9843 79.6881 17.3408C79.6881 18.3144 78.9587 19 77.9541 19C76.9495 19 76.4266 18.5475 76.1376 17.4368L75.6697 15.9285H71.0046L70.5367 17.382C70.2064 18.5338 69.6835 19 68.7615 19C67.6743 18.9863 67 18.3692 67 17.3408ZM74.9128 13.3095L73.3165 8.08521H73.2477L71.6927 13.3095H74.9128ZM83.2385 15.3937C82.2615 15.3937 81.4908 16.1753 81.4908 17.1489C81.4908 18.1224 82.2615 18.904 83.2385 18.904C84.2156 18.904 85 18.1224 85 17.1489C85 16.1753 84.2156 15.3937 83.2385 15.3937Z" fill="#FFC78A"/>
    <path fill-rule="evenodd" clip-rule="evenodd" d="M87 7.23506V17.382C87 18.4104 87.56 18.9863 88.554 19C89.534 19 90.094 18.4104 90.094 17.3957V10.3066H90.178L93.258 17.7796C93.496 18.4241 93.944 18.712 94.616 18.712C95.288 18.712 95.694 18.4241 95.96 17.7796L99.04 10.3066H99.124V17.382C99.124 18.3967 99.684 18.9863 100.664 18.9863C101.644 18.9863 102.218 18.3967 102.218 17.382V7.23506C102.218 5.80901 101.392 5 99.936 5C98.704 5 98.032 5.47992 97.528 6.75514L94.644 13.9265H94.574L91.676 6.75514C91.172 5.49363 90.514 5 89.282 5C87.826 5 87 5.80901 87 7.23506ZM106.208 15.3937C105.214 15.3937 104.43 16.1753 104.43 17.1489C104.43 18.1224 105.228 18.904 106.208 18.904C107.202 18.904 108 18.1224 108 17.1489C108 16.1753 107.202 15.3937 106.208 15.3937Z" fill="#CDC5FF"/>
</svg>
