<svg width="151" height="30" fill="none"
    xmlns="http://www.w3.org/2000/svg">
    <path d="M15.956 12.124a1.543 1.543 0 00-1.257.122L.753 20.47c-.008 0-.008.01-.017.01-.706.438-.93 1.262-.56 2.042.465.964 2.101 1.876 4.072 2.27.611.123 1.343.21 2.178.21 1.567 0 3.495-.315 5.639-1.332 1.661-.789 3.236-2.507 4.218-4.602 1.033-2.21 1.24-4.427.56-6.102a1.465 1.465 0 00-.887-.841zM37.58 20.487c-.009 0-.009-.009-.017-.009l-13.946-8.223a1.472 1.472 0 00-1.257-.123c-.404.14-.732.448-.886.842-.68 1.675-.474 3.901.56 6.102.98 2.095 2.556 3.813 4.217 4.602 2.135 1.017 4.063 1.332 5.639 1.332.835 0 1.566-.087 2.178-.21 1.97-.386 3.606-1.297 4.071-2.27.37-.78.147-1.596-.56-2.043z" fill="#7CE0D6"/>
    <path d="M17.815 5.12a.678.678 0 01-.672-.684c0-1.692-1.351-3.068-3.013-3.068a.679.679 0 01-.671-.684c0-.377.301-.684.671-.684 2.402 0 4.347 1.99 4.347 4.427a.668.668 0 01-.662.693zM20.587 5.12a.679.679 0 01-.672-.684C19.915 2 21.87.01 24.271.01c.37 0 .672.307.672.684a.679.679 0 01-.672.684c-1.661 0-3.013 1.376-3.013 3.068a.682.682 0 01-.671.675zM25.735 23.8H11.324l6.551 3.85c.396.236.844.35 1.291.35.448 0 .896-.114 1.292-.35l6.55-3.85h-1.273zM27.758 15.306H9.895v4.41H28.43v-4.41h-.671z" fill="#2C3437"/>
    <path d="M27.138 11.309l-.164-.097H11.35l-.163.097a2.65 2.65 0 00-1.292 2.27v1.727h18.551V13.58a2.715 2.715 0 00-1.308-2.27zM27.758 19.716H9.887v1.736c0 .929.49 1.806 1.29 2.27l.139.08H26.99l.147-.088a2.652 2.652 0 001.282-2.271v-1.736h-.663v.009z" fill="#FFDD0F"/>
    <path d="M20.45 7.382a2.51 2.51 0 00-2.575 0l-6.525 3.84H26.983l-6.534-3.84z" fill="#2C3437"/>
    <path d="M55.198 22v-5.472H49.69V22h-2.16V9.4h2.16v5.094h5.508V9.4h2.142V22h-2.142zm8.781.216c-1.296 0-2.322-.426-3.078-1.278-.756-.852-1.134-2.028-1.134-3.528s.378-2.676 1.134-3.528c.756-.864 1.782-1.296 3.078-1.296 1.296 0 2.322.432 3.078 1.296.768.852 1.152 2.028 1.152 3.528s-.378 2.676-1.134 3.528c-.756.852-1.788 1.278-3.096 1.278zm0-2.016c.66 0 1.176-.246 1.548-.738.384-.492.576-1.176.576-2.052 0-.876-.192-1.566-.576-2.07-.372-.504-.888-.756-1.548-.756-.636 0-1.146.258-1.53.774-.384.504-.576 1.188-.576 2.052 0 .864.186 1.548.558 2.052.384.492.9.738 1.548.738zM76.153 22v-5.274c0-1.428-.57-2.142-1.71-2.142-1.248 0-1.872.702-1.872 2.106V22h-2.106v-9.198h2.106v.864c.6-.72 1.41-1.08 2.43-1.08.96 0 1.74.3 2.34.9.612.6.918 1.554.918 2.862V22h-2.106zm8.516.216c-1.307 0-2.346-.426-3.114-1.278-.756-.864-1.134-2.046-1.134-3.546 0-1.488.384-2.658 1.152-3.51.769-.864 1.8-1.296 3.097-1.296 1.175 0 2.135.366 2.88 1.098.755.732 1.133 1.806 1.133 3.222 0 .492-.024.924-.072 1.296H82.51c.037.648.258 1.17.666 1.566.42.396.919.594 1.495.594.816 0 1.463-.318 1.944-.954l1.331 1.368c-.803.96-1.895 1.44-3.275 1.44zm-2.141-5.76h4.067c-.047-.66-.251-1.158-.611-1.494a1.82 1.82 0 00-1.314-.522c-.6 0-1.099.168-1.495.504-.383.324-.6.828-.647 1.512zm9.356 9.036l1.422-3.636-3.456-9.054h2.124l2.142 5.652c.108.264.198.54.27.828.06-.264.144-.54.252-.828l2.16-5.652h2.124l-4.86 12.69h-2.178zm12.399-3.276c-1.26 0-2.262-.426-3.006-1.278-.732-.852-1.098-2.028-1.098-3.528s.366-2.676 1.098-3.528c.744-.864 1.746-1.296 3.006-1.296 1.896 0 3.114.846 3.654 2.538l-1.998.666c-.3-.792-.828-1.188-1.584-1.188-.636 0-1.134.252-1.494.756-.36.504-.54 1.188-.54 2.052 0 .852.174 1.53.522 2.034.36.492.84.738 1.44.738.852 0 1.41-.444 1.674-1.332l2.016.612c-.528 1.836-1.758 2.754-3.69 2.754zm9.653 0c-1.296 0-2.322-.426-3.078-1.278-.756-.852-1.134-2.028-1.134-3.528s.378-2.676 1.134-3.528c.756-.864 1.782-1.296 3.078-1.296 1.296 0 2.322.432 3.078 1.296.768.852 1.152 2.028 1.152 3.528s-.378 2.676-1.134 3.528c-.756.852-1.788 1.278-3.096 1.278zm0-2.016c.66 0 1.176-.246 1.548-.738.384-.492.576-1.176.576-2.052 0-.876-.192-1.566-.576-2.07-.372-.504-.888-.756-1.548-.756-.636 0-1.146.258-1.53.774-.384.504-.576 1.188-.576 2.052 0 .864.186 1.548.558 2.052.384.492.9.738 1.548.738zm17.286 1.8v-5.274c0-1.428-.522-2.142-1.566-2.142-.54 0-.966.186-1.278.558-.3.36-.45.9-.45 1.62V22h-2.106v-5.274c0-1.428-.522-2.142-1.566-2.142-.54 0-.966.186-1.278.558-.3.36-.45.9-.45 1.62V22h-2.106v-9.198h2.106v.846c.528-.708 1.278-1.062 2.25-1.062 1.128 0 1.932.432 2.412 1.296.588-.864 1.512-1.296 2.772-1.296 1.032 0 1.848.288 2.448.864.612.564.918 1.458.918 2.682V22h-2.106zm8.862.216c-.864 0-1.542-.306-2.034-.918V22h-2.106V9.958l2.106-.954v4.482c.516-.6 1.206-.9 2.07-.9 1.14 0 2.058.432 2.754 1.296.708.864 1.062 2.034 1.062 3.51 0 1.536-.342 2.724-1.026 3.564-.684.84-1.626 1.26-2.826 1.26zm-.252-2.016c.648 0 1.14-.246 1.476-.738.348-.504.522-1.194.522-2.07 0-.912-.174-1.608-.522-2.088-.348-.48-.84-.72-1.476-.72-.792 0-1.386.3-1.782.9v3.834c.384.588.978.882 1.782.882z" fill="#2A2A2A"/>
</svg>