<?xml version="1.0" encoding="UTF-8"?>
<svg width="185" height="40" viewBox="0 0 185 40" fill="none"
    xmlns="http://www.w3.org/2000/svg">
    <path d="M25.2404 7.2862C24.9897 7.28618 24.7491 7.18406 24.5719 7.00233C24.3945 6.82059 24.2949 6.57409 24.2947 6.31706C24.2935 5.15615 23.8431 4.0432 23.0422 3.22229C22.2414 2.40137 21.1555 1.93957 20.0229 1.93823C19.7721 1.93823 19.5317 1.83609 19.3543 1.65434C19.177 1.47261 19.0774 1.22611 19.0774 0.969083C19.0774 0.712058 19.177 0.465566 19.3543 0.283821C19.5317 0.102077 19.7721 0 20.0229 0C21.6567 0.00204337 23.2229 0.668193 24.3783 1.85232C25.5335 3.03644 26.1834 4.64185 26.1854 6.31644C26.1855 6.57348 26.0861 6.82004 25.9089 7.00188C25.7316 7.18375 25.4912 7.28604 25.2404 7.2862Z" fill="#2c3437"/>
    <path d="M29.164 7.28656C28.9132 7.28653 28.6728 7.18442 28.4954 7.00269C28.3181 6.82095 28.2184 6.57445 28.2183 6.31742C28.2204 4.64269 28.8704 3.03718 30.0259 1.85304C31.1813 0.668913 32.7478 0.00285232 34.3817 0.000976562C34.6326 0.000976562 34.873 0.103115 35.0504 0.28486C35.2276 0.466604 35.3272 0.713098 35.3272 0.970122C35.3272 1.22715 35.2276 1.47364 35.0504 1.65538C34.873 1.83713 34.6326 1.93921 34.3817 1.93921C33.2491 1.94051 32.1632 2.40228 31.3623 3.22319C30.5613 4.04412 30.1109 5.15715 30.1095 6.3181C30.1094 6.57503 30.0097 6.82132 29.8324 7.00293C29.655 7.18453 29.4146 7.28656 29.164 7.28656Z" fill="#2c3437"/>
    <path d="M14.6563 32.6913C11.2004 33.9608 8.30022 33.832 6.37835 33.4508C3.73118 32.9262 2.1889 31.7725 1.95166 31.2716C1.82606 31.0058 1.92834 30.9299 2.02577 30.8672L14.0116 23.7509V21.5104L1.06655 29.1963L1.0446 29.209C0.0442678 29.8405 -0.274855 31.009 0.249765 32.1168C0.904303 33.4982 3.22248 34.7983 6.01871 35.3527C7.0369 35.5527 8.07142 35.6527 9.10815 35.6511C11.1435 35.6511 13.6035 35.2728 16.3232 34.1027L15.84 33.8167C15.3686 33.5366 14.9642 33.152 14.6563 32.6913Z" fill="#2c3437"/>
    <path d="M53.2406 29.2103C53.2332 29.2058 53.2259 29.2013 53.2185 29.1977L40.2735 21.5117V23.7522L52.2592 30.8686C52.3574 30.9308 52.4598 31.0078 52.334 31.273C52.0968 31.7739 50.5545 32.9276 47.9074 33.4521C45.9857 33.8329 43.0859 33.9617 39.6307 32.6926C39.3249 33.152 38.9235 33.536 38.4552 33.8169L37.9656 34.1065C40.6841 35.2757 43.1424 35.6535 45.1771 35.6535C46.2138 35.655 47.2483 35.555 48.2664 35.355C51.0626 34.8007 53.3809 33.5006 54.0353 32.1192C54.5601 31.0103 54.2407 29.8419 53.2406 29.2103Z" fill="#2c3437"/>
    <path d="M38.4511 16.1161L28.9719 10.5085C28.4173 10.1792 27.7876 10.0056 27.1466 10.0055C26.5056 10.0054 25.8759 10.1786 25.3212 10.5077L15.8394 16.1166C15.2855 16.4452 14.8253 16.917 14.5047 17.4847C14.1842 18.0526 14.0143 18.6965 14.0122 19.3525V30.5754C14.0138 31.2325 14.1833 31.8776 14.5041 32.4466C14.8248 33.0156 15.2853 33.4885 15.84 33.8181L25.3169 39.4242C25.8716 39.7543 26.5017 39.9283 27.1432 39.9287C27.7846 39.929 28.4148 39.7557 28.9699 39.4264L38.4547 33.816C39.0067 33.4849 39.4649 33.0117 39.7838 32.4433C40.1027 31.875 40.2714 31.2312 40.273 30.5755V19.3526C40.2707 18.6971 40.1014 18.0537 39.7819 17.4861C39.4624 16.9184 39.0035 16.4461 38.4511 16.1161ZM16.786 17.7947L19.853 15.9804H34.4381L37.5016 17.7926C37.768 17.9516 37.9895 18.1792 38.1438 18.4527C38.2981 18.7264 38.38 19.0365 38.3814 19.3526V21.8131H15.9035V19.353C15.905 19.0369 15.9871 18.7266 16.142 18.4532C16.2968 18.1798 16.5188 17.9528 16.786 17.7947ZM37.5061 32.1397L34.4703 33.9354H19.8215L16.787 32.1403C16.519 31.9813 16.2966 31.7532 16.1415 31.4787C15.9865 31.2041 15.9045 30.8927 15.9035 30.5755V28.1032H38.3821V30.5755C38.3814 30.8918 38.3002 31.2023 38.1465 31.4768C37.9929 31.7511 37.7722 31.9795 37.5061 32.1397Z" fill="#2c3437"/>
    <path d="M73.6855 17.5101H75.9495V34.1772H73.6855V26.481H65.7733V34.1772H63.5093V17.5101H65.7733V24.4608H73.6855V17.5101ZM90.5387 27.9241C90.5387 28.9181 90.3986 29.8161 90.1186 30.6177C89.8385 31.4194 89.4417 32.1089 88.9282 32.6861C88.4303 33.2633 87.8312 33.7123 87.131 34.0329C86.4308 34.3376 85.6685 34.4899 84.8437 34.4899C84.0191 34.4899 83.2566 34.3376 82.5564 34.0329C81.8562 33.7123 81.2494 33.2633 80.7359 32.6861C80.238 32.1089 79.849 31.4194 79.5689 30.6177C79.2888 29.8161 79.1488 28.9181 79.1488 27.9241C79.1488 26.946 79.2888 26.0561 79.5689 25.2544C79.849 24.4367 80.238 23.7392 80.7359 23.162C81.2494 22.5848 81.8562 22.1439 82.5564 21.8392C83.2566 21.5186 84.0191 21.3582 84.8437 21.3582C85.6685 21.3582 86.4308 21.5186 87.131 21.8392C87.8312 22.1439 88.4303 22.5848 88.9282 23.162C89.4417 23.7392 89.8385 24.4367 90.1186 25.2544C90.3986 26.0561 90.5387 26.946 90.5387 27.9241ZM88.2747 27.9241C88.2747 26.513 87.9636 25.3987 87.3411 24.581C86.7343 23.7472 85.9019 23.3304 84.8437 23.3304C83.7857 23.3304 82.9455 23.7472 82.323 24.581C81.7162 25.3987 81.4128 26.513 81.4128 27.9241C81.4128 29.3351 81.7162 30.4573 82.323 31.2911C82.9455 32.1089 83.7857 32.5177 84.8437 32.5177C85.9019 32.5177 86.7343 32.1089 87.3411 31.2911C87.9636 30.4573 88.2747 29.3351 88.2747 27.9241ZM93.5927 22.0317C94.0905 21.9034 94.7518 21.7671 95.5766 21.6228C96.4012 21.4785 97.3504 21.4063 98.424 21.4063C99.3887 21.4063 100.19 21.5506 100.828 21.8392C101.466 22.1118 101.972 22.5047 102.345 23.0177C102.734 23.5148 103.006 24.1161 103.162 24.8215C103.318 25.527 103.395 26.3047 103.395 27.1544V34.1772H101.225V27.6355C101.225 26.8658 101.17 26.2085 101.061 25.6633C100.968 25.1181 100.805 24.6772 100.571 24.3405C100.338 24.0038 100.027 23.7633 99.6377 23.619C99.2487 23.4586 98.7663 23.3785 98.1906 23.3785C97.9572 23.3785 97.716 23.3865 97.4671 23.4025C97.2181 23.4186 96.977 23.4427 96.7436 23.4747C96.5256 23.4908 96.3234 23.5148 96.1367 23.5468C95.9655 23.5789 95.841 23.6029 95.7633 23.619V34.1772H93.5927V22.0317ZM106.318 27.9481C106.318 26.8418 106.474 25.8798 106.785 25.062C107.096 24.2282 107.508 23.5389 108.022 22.9937C108.535 22.4485 109.127 22.0396 109.796 21.7671C110.465 21.4946 111.149 21.3582 111.85 21.3582C113.483 21.3582 114.736 21.8873 115.607 22.9456C116.479 23.9877 116.914 25.5832 116.914 27.7317C116.914 27.8279 116.914 27.9561 116.914 28.1165C116.914 28.2608 116.907 28.3971 116.891 28.5253H108.582C108.675 29.8241 109.041 30.8101 109.679 31.4836C110.317 32.157 111.313 32.4937 112.666 32.4937C113.429 32.4937 114.067 32.4295 114.58 32.3013C115.109 32.157 115.506 32.0206 115.771 31.8924L116.074 33.7684C115.81 33.9127 115.343 34.0649 114.674 34.2253C114.02 34.3857 113.273 34.4658 112.433 34.4658C111.375 34.4658 110.457 34.3055 109.679 33.9848C108.917 33.6481 108.286 33.1911 107.788 32.6139C107.291 32.0367 106.917 31.3553 106.668 30.5696C106.435 29.768 106.318 28.8941 106.318 27.9481ZM114.65 26.7215C114.666 25.7114 114.417 24.8857 113.903 24.2443C113.406 23.587 112.713 23.2582 111.826 23.2582C111.328 23.2582 110.885 23.3624 110.496 23.5709C110.122 23.7633 109.803 24.0199 109.539 24.3405C109.274 24.6611 109.064 25.03 108.909 25.4468C108.769 25.8637 108.675 26.2886 108.629 26.7215H114.65ZM118.609 36.5101C118.78 36.5903 118.998 36.6624 119.262 36.7266C119.542 36.8067 119.815 36.8468 120.079 36.8468C120.935 36.8468 121.604 36.6465 122.086 36.2456C122.569 35.8608 123.004 35.2275 123.394 34.3456C122.413 32.4215 121.495 30.3852 120.639 28.2367C119.799 26.0722 119.099 23.8836 118.539 21.6709H120.873C121.044 22.3924 121.246 23.17 121.479 24.0038C121.729 24.8376 122.001 25.6953 122.296 26.5772C122.592 27.4591 122.911 28.3409 123.253 29.2228C123.596 30.1047 123.954 30.9544 124.327 31.7722C124.918 30.0886 125.431 28.4211 125.868 26.7696C126.304 25.1181 126.715 23.4186 127.105 21.6709H129.345C128.785 24.0279 128.162 26.2966 127.478 28.4772C126.794 30.6418 126.054 32.67 125.261 34.562C124.95 35.2836 124.623 35.9009 124.28 36.4139C123.954 36.9431 123.588 37.376 123.183 37.7127C122.779 38.0494 122.32 38.2979 121.806 38.4582C121.308 38.6186 120.74 38.6987 120.102 38.6987C119.931 38.6987 119.752 38.6827 119.566 38.6506C119.379 38.6346 119.192 38.6025 119.005 38.5544C118.834 38.5224 118.671 38.4823 118.515 38.4342C118.375 38.3861 118.274 38.346 118.212 38.3139L118.609 36.5101ZM134.458 32.5658C135.345 32.5658 135.998 32.4456 136.418 32.2051C136.855 31.9646 137.072 31.5798 137.072 31.0506C137.072 30.5055 136.862 30.0725 136.442 29.7519C136.022 29.4313 135.33 29.0705 134.365 28.6696C133.898 28.4772 133.447 28.2848 133.011 28.0924C132.591 27.8839 132.226 27.6434 131.914 27.3709C131.603 27.0984 131.354 26.7696 131.167 26.3848C130.98 26 130.887 25.527 130.887 24.9658C130.887 23.8595 131.284 22.9857 132.077 22.3443C132.871 21.687 133.953 21.3582 135.321 21.3582C135.664 21.3582 136.007 21.3823 136.348 21.4304C136.691 21.4624 137.011 21.5105 137.305 21.5747C137.601 21.6228 137.858 21.6789 138.076 21.743C138.309 21.8072 138.488 21.8633 138.612 21.9114L138.216 23.8355C137.982 23.7072 137.617 23.5789 137.119 23.4506C136.621 23.3063 136.022 23.2342 135.321 23.2342C134.715 23.2342 134.186 23.3624 133.734 23.619C133.284 23.8595 133.057 24.2443 133.057 24.7734C133.057 25.046 133.104 25.2865 133.198 25.4949C133.307 25.7034 133.463 25.8958 133.664 26.0722C133.883 26.2325 134.147 26.3848 134.458 26.5291C134.77 26.6734 135.143 26.8257 135.578 26.9861C136.154 27.2105 136.668 27.4351 137.119 27.6595C137.571 27.868 137.952 28.1165 138.262 28.4051C138.589 28.6937 138.838 29.0465 139.009 29.4633C139.181 29.8642 139.266 30.3611 139.266 30.9544C139.266 32.1089 138.846 32.9827 138.006 33.576C137.181 34.1693 135.998 34.4658 134.458 34.4658C133.384 34.4658 132.544 34.3696 131.937 34.1772C131.33 34.0009 130.919 33.8646 130.7 33.7684L131.097 31.8443C131.346 31.9405 131.743 32.0848 132.287 32.2772C132.833 32.4696 133.556 32.5658 134.458 32.5658ZM151.97 34.1772C151.534 33.0228 151.067 31.708 150.57 30.2329C150.087 28.7418 149.644 27.1946 149.239 25.5911C148.834 27.1946 148.391 28.7418 147.909 30.2329C147.426 31.708 146.967 33.0228 146.532 34.1772H144.641C143.925 32.5257 143.225 30.6418 142.541 28.5253C141.855 26.4089 141.21 24.1241 140.604 21.6709H142.938C143.092 22.4244 143.279 23.2422 143.498 24.1241C143.715 25.006 143.941 25.8877 144.175 26.7696C144.423 27.6515 144.68 28.5013 144.945 29.319C145.209 30.1367 145.458 30.8503 145.692 31.4595C145.956 30.706 146.213 29.9123 146.462 29.0785C146.726 28.2287 146.975 27.3789 147.209 26.5291C147.442 25.6633 147.66 24.8215 147.862 24.0038C148.08 23.17 148.267 22.3924 148.423 21.6709H150.22C150.36 22.3924 150.531 23.17 150.733 24.0038C150.935 24.8215 151.153 25.6633 151.387 26.5291C151.62 27.3789 151.861 28.2287 152.11 29.0785C152.374 29.9123 152.638 30.706 152.904 31.4595C153.137 30.8503 153.378 30.1367 153.627 29.319C153.891 28.5013 154.148 27.6515 154.398 26.7696C154.646 25.8877 154.879 25.006 155.098 24.1241C155.315 23.2422 155.502 22.4244 155.658 21.6709H157.899C157.292 24.1241 156.646 26.4089 155.961 28.5253C155.276 30.6418 154.576 32.5257 153.861 34.1772H151.97ZM164.301 32.5658C164.815 32.5658 165.267 32.5579 165.655 32.5418C166.06 32.5098 166.394 32.4617 166.658 32.3975V28.6696C166.504 28.5895 166.247 28.5253 165.888 28.4772C165.547 28.413 165.127 28.381 164.628 28.381C164.301 28.381 163.951 28.4051 163.578 28.4532C163.22 28.5013 162.886 28.6055 162.574 28.7658C162.279 28.9101 162.03 29.1186 161.827 29.3911C161.626 29.6477 161.524 29.9924 161.524 30.4253C161.524 31.227 161.773 31.7882 162.271 32.1089C162.769 32.4136 163.446 32.5658 164.301 32.5658ZM164.114 21.3582C164.987 21.3582 165.717 21.4785 166.308 21.719C166.915 21.9434 167.398 22.2722 167.755 22.7051C168.129 23.1219 168.394 23.627 168.549 24.2203C168.705 24.7975 168.782 25.4389 168.782 26.1443V33.9608C168.596 33.9928 168.332 34.0409 167.989 34.1051C167.662 34.1532 167.289 34.2013 166.868 34.2494C166.448 34.2975 165.99 34.3376 165.491 34.3696C165.01 34.4177 164.527 34.4418 164.044 34.4418C163.36 34.4418 162.73 34.3696 162.154 34.2253C161.579 34.081 161.08 33.8566 160.66 33.5519C160.24 33.2313 159.913 32.8143 159.68 32.3013C159.446 31.7882 159.33 31.1709 159.33 30.4494C159.33 29.7599 159.462 29.1667 159.726 28.6696C160.007 28.1725 160.38 27.7718 160.847 27.4671C161.314 27.1624 161.859 26.938 162.481 26.7937C163.103 26.6494 163.757 26.5772 164.441 26.5772C164.66 26.5772 164.885 26.5933 165.118 26.6253C165.351 26.6414 165.57 26.6734 165.772 26.7215C165.99 26.7536 166.177 26.7857 166.332 26.8177C166.488 26.8498 166.597 26.8738 166.658 26.8899V26.2646C166.658 25.8958 166.62 25.5351 166.542 25.1823C166.464 24.8136 166.324 24.4928 166.122 24.2203C165.92 23.9317 165.64 23.7072 165.281 23.5468C164.94 23.3705 164.488 23.2823 163.928 23.2823C163.213 23.2823 162.583 23.3384 162.037 23.4506C161.509 23.5468 161.112 23.651 160.847 23.7633L160.59 21.9114C160.87 21.7832 161.337 21.6629 161.99 21.5506C162.644 21.4224 163.353 21.3582 164.114 21.3582ZM180.814 27.9481C180.814 26.489 180.463 25.3667 179.763 24.581C179.063 23.7953 178.129 23.4025 176.962 23.4025C176.309 23.4025 175.795 23.4266 175.422 23.4747C175.065 23.5228 174.776 23.5789 174.558 23.643V31.5317C174.823 31.7561 175.205 31.9725 175.702 32.181C176.2 32.3895 176.745 32.4937 177.336 32.4937C177.959 32.4937 178.487 32.3814 178.923 32.157C179.374 31.9165 179.74 31.5958 180.02 31.1949C180.3 30.7781 180.503 30.2971 180.627 29.7519C180.751 29.1908 180.814 28.5895 180.814 27.9481ZM183.077 27.9481C183.077 28.8941 182.953 29.768 182.704 30.5696C182.471 31.3713 182.121 32.0608 181.654 32.638C181.187 33.2152 180.611 33.6642 179.927 33.9848C179.257 34.3055 178.487 34.4658 177.616 34.4658C176.916 34.4658 176.293 34.3696 175.749 34.1772C175.219 33.9848 174.823 33.8004 174.558 33.6241V38.6266H172.388V22.0557C172.901 21.9275 173.539 21.7911 174.302 21.6468C175.079 21.4865 175.975 21.4063 176.986 21.4063C177.919 21.4063 178.76 21.5586 179.506 21.8633C180.253 22.168 180.891 22.6009 181.42 23.162C181.95 23.7232 182.354 24.4127 182.634 25.2304C182.93 26.032 183.077 26.938 183.077 27.9481Z" fill="#2c3437"/>
</svg>
