<?xml version="1.0" encoding="UTF-8"?>
<svg version="1.0"
    xmlns="http://www.w3.org/2000/svg" viewBox="280 0 4500 800">
    <path d="M2389 67a115 115 0 00-60 198c11 11 13 14 17 21 4 10 6 16 6 26 0 16-6 29-18 41a54 54 0 01-41 17c-17 0-28-5-45-22-18-16-31-25-49-30-46-15-97 1-126 39a114 114 0 00160 160c7-5 10-9 22-22 5-5 15-11 23-14 28-8 57 4 70 30 5 10 6 17 6 29-1 16-7 29-18 40a114 114 0 10187 106c2-13 1-33-2-45-6-23-14-38-33-57-17-18-20-24-24-39-5-25 9-52 33-63 13-6 25-7 38-4s19 7 31 20a115 115 0 00180-15c12-17 18-36 19-57 1-33-10-62-34-86a113 113 0 00-165 5l-16 14c-13 8-29 11-42 8-21-5-35-18-43-38-3-7-3-9-3-20 0-10 0-12 2-18 4-11 9-17 18-26 26-26 38-55 37-90a114 114 0 00-130-108zm37 49c20 7 37 24 43 45 3 11 3 27 0 38a69 69 0 01-60 48 67 67 0 1117-130zm246 242a67 67 0 01-2 128l-19 1c-10 0-13 0-20-2a67 67 0 01-10-123c12-6 20-8 33-8 7 1 12 1 18 4zm-488 4c20 6 36 22 43 43 3 8 3 10 3 21s0 13-2 20c-10 27-33 45-61 47-11 0-21-2-33-8a66 66 0 01-36-60c0-10 0-12 3-20 8-23 26-39 49-45 9-2 25-1 34 2zm246 241c21 7 36 22 43 43 3 8 3 10 3 20 0 11 0 14-2 21a67 67 0 01-128 1c-2-7-2-10-2-21s0-13 3-21a68 68 0 0166-46c7 1 12 1 17 3z"></path>
    <path d="M2391 136c-8 3-14 6-20 13-9 9-12 18-12 31 0 14 5 24 14 34 10 9 20 12 35 12 8 0 11-1 16-4 10-4 18-12 23-22 4-7 4-7 4-20 0-12-1-13-4-19-4-10-12-18-22-23-7-3-8-3-18-4-8 0-12 0-16 2zm246 241c-11 3-22 13-27 22-7 14-7 33 1 46 4 7 13 15 21 18 6 3 7 4 19 4 13 0 13 0 20-4 10-5 17-12 22-22 4-7 4-7 4-20 0-12-1-13-4-19-4-10-12-18-22-23-7-3-8-3-18-4-8 0-12 0-16 2zm-486 4c-12 4-24 14-29 26-3 6-3 7-3 19s0 13 3 19c5 12 16 22 29 26h26c13-4 24-14 29-26 3-6 4-7 4-19s-1-13-4-19c-4-10-12-18-22-23-7-3-8-3-18-4l-15 1zm245 242c-8 3-14 6-20 12-9 10-12 20-12 35 1 9 1 10 4 17 5 10 13 18 23 22 6 3 7 3 19 3s13 0 19-3c10-4 18-12 23-22 3-7 4-8 4-17 1-15-3-24-13-35-4-4-7-7-13-10-7-3-8-4-18-4-8 0-12 0-16 2zm792-453h-2c-1-1-14 8-19 12l-72 143-25 50-2-2a9177 9177 0 00-95-192c-6-5-12-9-19-11-19-5-39 5-47 22l-4 6 1 208v208l3 6c4 8 12 16 20 20 5 2 7 3 16 3 10 0 12-1 17-3 9-4 15-11 20-20l3-7 1-114 1-113 26 53c24 50 26 53 32 59l11 8c4 2 6 3 16 3 11 0 12-1 18-4 11-5 13-9 33-47l26-54 9-19 1 114 1 114 2 6c4 8 12 16 20 20 6 3 7 3 17 3 10 1 12 0 17-2 8-4 15-11 20-20l3-7 1-204c0-181 0-204-2-209-3-16-16-27-31-30-11-2-16-2-17 0zm-2870 1c-11 4-22 15-26 26-1 5-2 18-2 210l1 205 2 5c7 18 22 27 41 26 6-1 10-1 14-3 8-4 16-12 19-20l4-7V487l1-126 38 67 77 134c26 44 40 68 43 71 2 1 6 5 10 6 6 3 7 3 18 3 10 1 11 0 17-3 8-4 16-12 20-20l3-6V200l-3-6c-3-7-10-15-16-18-24-14-56 0-61 27l-1 127v122l-19-34-70-121c-64-111-64-111-69-116l-11-7c-9-4-20-5-30-2zm4277 0c-11 2-22 10-27 21l-3 7v319l2 10c11 49 41 88 85 110l12 5h10c12-1 18-3 25-10 9-9 13-22 11-34-2-13-8-21-22-29a83 83 0 01-42-43c-6-15-6-8-6-172l-1-154c-4-20-24-34-44-30zm-945 2c-11 3-20 11-25 22l-2 6v155c0 167 0 164 5 182 12 44 50 83 94 98 17 6 24 6 52 6l26 1 6-4c8-3 14-10 18-18 2-4 2-6 2-16 1-11 0-12-2-16l-7-10c-10-10-16-12-40-12-20 0-27-1-38-7-15-7-26-18-33-32s-7-13-7-85v-65h30l30-1 5-2c8-4 15-11 19-19 2-5 2-7 2-16 0-10 0-11-2-16-4-7-12-15-20-19l-6-3h-58v-51c-1-50-1-51-3-56-3-8-11-16-19-20-7-4-18-5-27-3zM782 297c-36 4-61 16-85 41-16 16-27 34-34 55-7 22-8 35-8 84 1 41 1 45 8 65 13 41 51 79 93 93 34 12 73 11 107-3 26-11 58-37 67-56s1-42-17-51c-17-8-34-5-47 8-18 19-25 25-41 30-8 2-31 2-40 0a75 75 0 01-50-53l84-1 89-1c12-3 22-10 27-22l3-6 1-27c-1-23-1-28-3-38-4-22-12-41-23-59-7-10-27-30-37-37-15-10-33-17-51-20-8-2-36-3-43-2zm36 80c20 7 35 25 40 48l2 6H734l2-6c6-27 25-46 50-50 8-2 23 0 32 2zm503-79c-11 3-19 11-24 21l-3 6v188l2 11c6 29 17 50 37 72 30 31 66 47 110 47 22 0 38-3 57-10 32-13 61-40 77-71 10-18 14-34 16-56V329c-2-13-11-24-23-30-5-2-7-3-15-3-13 1-19 3-28 11-6 7-10 13-11 22l-1 90-1 91c-4 14-10 24-20 34-9 9-17 14-28 18-8 2-10 2-22 2-16 0-21-1-34-7-12-6-25-19-31-31-8-16-7-10-8-111v-91l-3-5c-4-9-10-14-19-19-6-3-8-3-15-4-6 0-10 0-13 2zm1983 0c-11 3-19 11-24 22l-2 4v95l1 104c7 31 19 53 42 76 31 31 63 44 106 44a139 139 0 00104-42c23-22 37-46 43-75l3-11V323l-4-6c-4-7-11-14-19-18-5-2-7-3-15-3-9 0-11 1-16 3-8 4-17 13-21 20l-2 6-1 91c-1 100 0 94-7 108-4 9-11 18-19 24a67 67 0 01-46 16c-13 0-15 0-22-2-23-8-39-24-47-47l-2-8-1-91c0-83-1-91-2-95-4-9-12-18-23-22-6-3-19-4-26-1zm591-1c-11 3-22 13-26 24l-2 6v91c0 100-1 98 6 120 3 12 14 33 22 44 13 17 32 34 51 44 9 5 26 11 37 14 15 3 42 4 57 2 32-5 57-18 81-41 26-25 41-55 45-90V326a39 39 0 00-74-7l-3 5v91c-1 101 0 94-8 111-6 12-19 25-31 31s-18 7-34 7c-12 0-14 0-21-2-12-4-21-9-29-18-9-9-15-18-19-30l-2-9-1-91c0-89 0-91-3-95-2-6-10-14-16-18-8-5-20-6-30-4zm-2898 2c-10 4-19 12-23 22-2 4-2 8-2 15 0 12 1 16 13 32l75 98 3 4-14 19-43 56-32 44c-6 14-2 34 10 45l10 6c5 2 7 2 16 2 10 0 11 0 17-2 4-2 8-5 11-9l40-51c28-37 35-45 36-44l34 45c40 53 41 54 50 58 6 3 7 3 17 3s11 0 17-3c8-4 15-11 19-19 3-7 4-20 2-27-3-7-3-8-21-32l-33-42-27-36-10-13 17-23a4935 4935 0 0140-53l19-24c14-18 16-22 16-35 0-8-1-10-3-16-4-7-11-14-19-19-5-2-6-3-17-3-10 0-11 1-17 4-8 3-12 8-24 24l-61 79c-1 1-14-17-60-78-15-19-18-22-26-25-8-4-21-5-30-2zm726-1a103 103 0 00-72 46c-19 29-22 70-7 102 13 26 39 47 67 55 7 2 11 2 56 3 52 1 52 1 60 6 16 11 17 35 2 48-8 7-8 7-61 7l-51-1-9-5c-18-14-29-17-46-11-7 3-16 12-20 19-2 5-3 7-3 17 0 14 2 18 13 29 12 12 25 20 41 25 15 5 21 5 80 5 53-1 56-1 63-3a110 110 0 0077-135c-7-32-37-63-70-73-13-4-15-4-64-5l-49-1-4-2c-9-6-14-13-14-24 1-6 1-8 4-12 3-5 10-11 15-12l47-1c49 0 46 0 55 8 2 2 7 6 11 7 6 3 7 3 16 3 9 1 10 0 16-3 26-12 31-43 10-63-14-14-29-23-49-28l-57-2-57 1zm2609 1c-30 5-56 19-79 42s-36 49-42 79c-2 13-3 64-1 85 3 38 16 66 42 93a140 140 0 00111 45c26-1 45-6 65-16l7-4 2 2c9 11 12 14 21 17 9 2 21 1 28-2 8-4 16-12 20-19l2-6v-94c0-103 1-102-6-120a150 150 0 00-171-101zm45 78c20 5 38 20 48 39 6 13 6 17 6 58l-1 35-2 8c-5 11-10 19-18 27-9 9-17 14-27 18-10 3-29 4-40 2-21-5-40-21-49-40-6-12-6-15-7-49 0-34 0-41 4-52 7-22 29-41 51-47 8-2 26-1 35 1z"></path>
</svg>