<?xml version="1.0" encoding="utf-8"?>
<!-- Generator: Adobe Illustrator 25.0.1, SVG Export Plug-In . SVG Version: 6.00 Build 0)  -->
<svg version="1.1" id="Layer_1"
	xmlns="http://www.w3.org/2000/svg"
	xmlns:xlink="http://www.w3.org/1999/xlink" x="0px" y="0px" viewBox="0 0 64 64" style="enable-background:new 0 0 64 64;" xml:space="preserve">
	<style type="text/css">
	.st0{fill:url(#SVGID_1_);}
	.st1{fill:url(#SVGID_2_);}
	.st2{fill:url(#SVGID_3_);}
	</style>
	<linearGradient id="SVGID_1_" gradientUnits="userSpaceOnUse" x1="48.9966" y1="31.0282" x2="28.07" y2="43.6216">
		<stop offset="0" style="stop-color:#E73462"/>
		<stop offset="0.9663" style="stop-color:#81277B"/>
	</linearGradient>
	<path class="st0" d="M57.14,34.09c-0.58-0.35-1.27-0.12-1.78,0.17L35.23,45.89c-0.5,0.29-1.2,0.5-1.78,0.17
	c-0.58-0.35-0.73-1.06-0.73-1.64v-8.71c0-1.6,1.12-3.55,2.51-4.36l8.59-4.96C48.26,28.95,52.7,31.52,57.14,34.09z"/>
	<linearGradient id="SVGID_2_" gradientUnits="userSpaceOnUse" x1="50.8325" y1="14.1706" x2="13.16" y2="36.5573">
		<stop offset="0.1165" style="stop-color:#FFCD05"/>
		<stop offset="1" style="stop-color:#E64925"/>
	</linearGradient>
	<path class="st1" d="M56.24,18.9c-0.15,0.29-0.41,0.54-0.73,0.75c-0.1,0.06-0.42,0.25-0.52,0.31c-0.17,0.1-0.37,0.21-0.54,0.31
	c-0.71,0.41-1.43,0.81-2.12,1.24c-1.43,0.81-2.86,1.64-4.27,2.45c-1.43,0.83-2.86,1.64-4.27,2.47c-1.43,0.81-2.86,1.64-4.27,2.47
	c-1.43,0.81-2.86,1.64-4.29,2.45c-1.39,0.81-2.51,2.76-2.51,4.36v8.71c0,0.58,0.15,1.29,0.73,1.64
	c-8.38-4.85-16.76-9.69-25.16-14.54c-0.58-0.33-0.73-1.04-0.73-1.62v-8.71c0-1.6,1.12-3.55,2.51-4.36c1.43-0.83,2.86-1.64,4.29-2.47
	c1.41-0.81,2.84-1.64,4.27-2.45c1.43-0.83,2.84-1.66,4.27-2.47c1.43-0.81,2.84-1.64,4.27-2.47c0.71-0.41,1.41-0.81,2.12-1.22
	c0.19-0.12,0.37-0.21,0.54-0.31c0.1-0.06,0.42-0.25,0.54-0.31c0.37-0.19,0.81-0.33,1.29-0.42c0.97-0.17,2.03-0.1,2.92,0.21
	c0.21,0.06,0.41,0.15,0.6,0.25c0.04,0.04,0.48,0.29,0.52,0.31c0.37,0.21,0.71,0.41,1.06,0.62c2.86,1.64,5.7,3.28,8.53,4.92
	c2.86,1.64,5.7,3.28,8.53,4.92c0.37,0.21,0.71,0.42,1.06,0.62c0.06,0.04,0.5,0.29,0.54,0.31c0.17,0.12,0.33,0.23,0.46,0.35
	C56.41,17.72,56.54,18.34,56.24,18.9z"/>
	<linearGradient id="SVGID_3_" gradientUnits="userSpaceOnUse" x1="15.8308" y1="57.3285" x2="57.8596" y2="32.4556">
		<stop offset="0" style="stop-color:#FFCD05"/>
		<stop offset="0.1639" style="stop-color:#F9B417"/>
		<stop offset="0.5676" style="stop-color:#EE7F22"/>
		<stop offset="0.8564" style="stop-color:#E85A24"/>
		<stop offset="1" style="stop-color:#E64925"/>
	</linearGradient>
	<path class="st2" d="M57.88,35.71v8.71c0,1.6-1.12,3.55-2.51,4.36c-1.43,0.83-2.86,1.64-4.29,2.47c-1.43,0.81-2.84,1.64-4.27,2.45
	c-1.43,0.83-2.84,1.66-4.27,2.47c-1.43,0.81-2.84,1.64-4.27,2.47c-0.71,0.41-1.43,0.81-2.12,1.22c-0.19,0.12-0.37,0.21-0.54,0.31
	c-0.1,0.06-0.42,0.25-0.54,0.31c-0.37,0.19-0.81,0.33-1.29,0.42c-0.97,0.17-2.03,0.1-2.92-0.21c-0.21-0.06-0.41-0.15-0.6-0.25
	c-0.04-0.04-0.48-0.29-0.52-0.31c-0.37-0.21-0.71-0.41-1.06-0.62c-2.86-1.64-5.7-3.28-8.55-4.92c-2.84-1.64-5.68-3.28-8.53-4.92
	c-0.35-0.21-0.7-0.42-1.06-0.62c-0.04-0.04-0.48-0.29-0.52-0.31c-0.17-0.12-0.33-0.23-0.46-0.35c-0.52-0.5-0.66-1.12-0.35-1.68
	c0.15-0.29,0.41-0.54,0.73-0.75c0.1-0.06,0.42-0.25,0.52-0.31c0.17-0.1,0.35-0.21,0.54-0.31c0.7-0.41,1.41-0.81,2.12-1.24
	c1.43-0.81,2.86-1.64,4.27-2.45c1.41-0.81,2.82-1.62,4.23-2.43l11.84,6.83c0.58,0.33,1.27,0.12,1.78-0.17l20.14-11.62
	c0.5-0.29,1.2-0.52,1.78-0.17C57.72,34.42,57.88,35.13,57.88,35.71z"/>
</svg>
