<?xml version="1.0" encoding="UTF-8"?>
<svg width="145" height="33" viewBox="0 0 145 33" fill="none"
    xmlns="http://www.w3.org/2000/svg">
    <path fill-rule="evenodd" clip-rule="evenodd" d="M4.33512 0.0472302C4.25009 0.0376837 4.16506 0.0281372 4.08908 0.00954654V0C4.16506 0.0185906 4.25009 0.0376837 4.33512 0.0472302Z" fill="#181B30"/>
    <path fill-rule="evenodd" clip-rule="evenodd" d="M4.33512 0.0472302C4.25009 0.0376837 4.16506 0.0281372 4.08908 0.00954654V0C4.16506 0.0185906 4.25009 0.0376837 4.33512 0.0472302Z" fill="#181B30"/>
    <mask id="mask0" mask-type="alpha" maskUnits="userSpaceOnUse" x="0" y="3" width="27" height="30">
        <path fill-rule="evenodd" clip-rule="evenodd" d="M14.2916 3.56007C13.7819 3.55956 13.2727 3.5877 12.766 3.64347C5.59003 4.40368 0 10.4657 0 17.8321C0 25.711 6.39658 32.0992 14.2916 32.0987H14.3238C16.598 32.0972 18.8391 31.5505 20.8582 30.5049C21.4353 30.2055 21.1858 29.3347 20.5372 29.3533H20.511C14.7952 29.498 9.66305 27.0842 7.57296 22.6114C6.31809 19.9334 6.36891 17.4543 6.95257 15.4952C6.9576 15.4762 6.96162 15.4626 6.96666 15.444C7.26553 14.2371 7.82503 13.1237 8.65121 12.257C8.71461 12.1806 8.78304 12.1082 8.8565 12.0414C8.90279 11.9922 8.9526 11.9469 9.00543 11.9057C9.02455 11.8846 9.04518 11.8645 9.06581 11.846C9.08493 11.8319 9.09851 11.8173 9.11763 11.8032C9.15436 11.7671 9.19512 11.7339 9.23839 11.7063C10.6472 10.5602 12.4098 9.93816 14.2261 9.94469C18.4894 9.94469 21.948 13.2714 21.948 17.3764C21.948 18.7878 21.5309 20.1685 20.7495 21.3453C24.1579 20.171 26.5957 17.0302 26.5952 13.3428C26.5952 11.244 25.8032 9.32416 24.4869 7.83792C23.9355 7.27367 23.3377 6.75564 22.6997 6.29088L22.6947 6.28635C20.261 4.51422 17.3271 3.56007 14.3152 3.56007C14.3072 3.56007 14.2991 3.56007 14.2916 3.56007Z" fill="white"/>
    </mask>
    <g mask="url(#mask0)">
        <path fill-rule="evenodd" clip-rule="evenodd" d="M14.2916 3.56007C13.7819 3.55956 13.2727 3.5877 12.766 3.64347C5.59003 4.40368 0 10.4657 0 17.8321C0 25.711 6.39658 32.0992 14.2916 32.0987H14.3238C16.598 32.0972 18.8391 31.5505 20.8582 30.5049C21.4353 30.2055 21.1858 29.3347 20.5372 29.3533H20.511C14.7952 29.498 9.66305 27.0842 7.57296 22.6114C6.31809 19.9334 6.36891 17.4543 6.95257 15.4952C6.9576 15.4762 6.96162 15.4626 6.96666 15.444C7.26553 14.2371 7.82503 13.1237 8.65121 12.257C8.71461 12.1806 8.78304 12.1082 8.8565 12.0414C8.90279 11.9922 8.9526 11.9469 9.00543 11.9057C9.02455 11.8846 9.04518 11.8645 9.06581 11.846C9.08493 11.8319 9.09851 11.8173 9.11763 11.8032C9.15436 11.7671 9.19512 11.7339 9.23839 11.7063C10.6472 10.5602 12.4098 9.93816 14.2261 9.94469C18.4894 9.94469 21.948 13.2714 21.948 17.3764C21.948 18.7878 21.5309 20.1685 20.7495 21.3453C24.1579 20.171 26.5957 17.0302 26.5952 13.3428C26.5952 11.244 25.8032 9.32416 24.4869 7.83792C23.9355 7.27367 23.3377 6.75564 22.6997 6.29088L22.6947 6.28635C20.261 4.51422 17.3271 3.56007 14.3152 3.56007C14.3072 3.56007 14.2991 3.56007 14.2916 3.56007Z" fill="url(#paint0_linear)"/>
    </g>
    <mask id="mask1" mask-type="alpha" maskUnits="userSpaceOnUse" x="7" y="7" width="22" height="21">
        <path fill-rule="evenodd" clip-rule="evenodd" d="M26.5131 13.2595C26.5131 16.9444 24.1916 20.0857 20.9397 21.2615C20.026 21.5956 19.0604 21.7654 18.0878 21.7634C14.9607 21.7634 12.2337 20.0445 10.7795 17.4866C10.4253 16.8635 10.1466 15.8044 9.95739 14.903C9.77928 14.0488 8.66479 13.8262 8.17372 14.5472C8.00365 14.7939 7.87736 15.0673 7.80038 15.3572C7.79082 15.3989 7.77773 15.4411 7.76868 15.4823C7.76515 15.4954 7.76365 15.5074 7.76415 15.52C7.53069 16.4847 7.46276 17.482 7.5649 18.4694C7.56389 18.4819 7.5649 18.4945 7.56943 18.507C7.61421 18.9552 7.69421 19.3984 7.80943 19.834C7.9483 20.4068 8.14051 20.965 8.38303 21.5026C10.1602 25.4911 14.1421 27.9435 19.3875 27.5175C19.9057 27.4748 20.421 27.4009 20.9307 27.2964C25.2583 26.3829 28.3778 22.4563 28.404 17.8328V17.7468C28.4055 17.1735 28.3713 16.6007 28.3008 16.0325C27.9562 12.9384 26.6198 10.0378 24.492 7.76367C25.7966 9.29865 26.5131 11.2461 26.5131 13.2595Z" fill="white"/>
    </mask>
    <g mask="url(#mask1)">
        <path fill-rule="evenodd" clip-rule="evenodd" d="M26.5131 13.2595C26.5131 16.9444 24.1916 20.0857 20.9397 21.2615C20.026 21.5956 19.0604 21.7654 18.0878 21.7634C14.9607 21.7634 12.2337 20.0445 10.7795 17.4866C10.4253 16.8635 10.1466 15.8044 9.95739 14.903C9.77928 14.0488 8.66479 13.8262 8.17372 14.5472C8.00365 14.7939 7.87736 15.0673 7.80038 15.3572C7.79082 15.3989 7.77773 15.4411 7.76868 15.4823C7.76515 15.4954 7.76365 15.5074 7.76415 15.52C7.53069 16.4847 7.46276 17.482 7.5649 18.4694C7.56389 18.4819 7.5649 18.4945 7.56943 18.507C7.61421 18.9552 7.69421 19.3984 7.80943 19.834C7.9483 20.4068 8.14051 20.965 8.38303 21.5026C10.1602 25.4911 14.1421 27.9435 19.3875 27.5175C19.9057 27.4748 20.421 27.4009 20.9307 27.2964C25.2583 26.3829 28.3778 22.4563 28.404 17.8328V17.7468C28.4055 17.1735 28.3713 16.6007 28.3008 16.0325C27.9562 12.9384 26.6198 10.0378 24.492 7.76367C25.7966 9.29865 26.5131 11.2461 26.5131 13.2595Z" fill="url(#paint1_linear)"/>
    </g>
    <path fill-rule="evenodd" clip-rule="evenodd" d="M111.819 13.8569H113.555V22.2408H118.191V23.718H111.819V13.8569Z" fill="#040000"/>
    <path fill-rule="evenodd" clip-rule="evenodd" d="M68.5542 13.7417H70.3208V17.8161L70.3339 17.8261L73.8846 13.7417H75.8323L72.8758 17.288L76.1649 23.6028H74.3495L71.7553 18.619L70.3208 20.3831V23.6028H68.5542V13.7417Z" fill="#040000"/>
    <path fill-rule="evenodd" clip-rule="evenodd" d="M144.948 23.6907H143.659C143.278 23.6907 142.926 23.4877 142.734 23.1581L139.149 16.9694V18.3099H139.155V20.8101H139.149V23.6907H137.382V13.8296H138.716C138.995 13.8296 139.253 13.9768 139.394 14.2165L143.182 20.6292V13.8291H144.953V23.6294L144.948 23.6907Z" fill="#040000"/>
    <path fill-rule="evenodd" clip-rule="evenodd" d="M104.595 23.6907H103.298C102.916 23.6907 102.564 23.4877 102.373 23.1581L98.7876 16.9699V18.3099H98.7931V20.8101H98.7876V23.6907H97.021V13.8296H98.3554C98.6341 13.8296 98.8923 13.9768 99.0336 14.2165L102.821 20.6292V13.8291H104.592V23.6294L104.595 23.6907Z" fill="#040000"/>
    <path fill-rule="evenodd" clip-rule="evenodd" d="M44.28 15.2194H41.169V13.7417H49.142V15.2194H46.0315V23.6028H44.28V15.2194Z" fill="#040000"/>
    <path fill-rule="evenodd" clip-rule="evenodd" d="M89.4193 22.2165V23.6957H83.0464V13.8291H84.7818V13.8351H89.0988V15.3083H84.7818V17.7281H88.6737V19.2073H84.7818V22.2165H89.4193Z" fill="#040000"/>
    <path fill-rule="evenodd" clip-rule="evenodd" d="M58.5083 22.3376C57.1775 22.3376 56.3921 20.6896 56.3921 18.6542C56.3921 16.6192 57.178 14.9707 58.5083 14.9707C59.8991 14.9707 60.6306 16.6192 60.6306 18.6542C60.6306 20.6896 59.8991 22.3376 58.5083 22.3376ZM62.1119 16.4921C61.9187 15.8641 61.6525 15.333 61.3195 14.9039C60.9939 14.4808 60.5738 14.1397 60.0923 13.9075C59.0905 13.4488 57.9383 13.4488 56.936 13.9075C56.4575 14.1412 56.0394 14.4823 55.7148 14.9039C55.3757 15.3325 55.1161 15.8641 54.9224 16.4921C54.7292 17.1207 54.6381 17.8327 54.6381 18.63C54.6381 19.4274 54.7292 20.152 54.9224 20.7856C55.1161 21.4191 55.3757 21.9573 55.7148 22.4044C56.8746 23.95 59.0694 24.2645 60.6171 23.1064C60.8837 22.9069 61.1207 22.6707 61.3205 22.4044C61.6757 21.9146 61.9439 21.3669 62.1129 20.7856C62.3061 20.1515 62.3972 19.433 62.3972 18.63C62.3972 17.8266 62.3056 17.1207 62.1119 16.4921Z" fill="#040000"/>
    <path fill-rule="evenodd" clip-rule="evenodd" d="M127.209 22.3376C125.878 22.3376 125.092 20.6896 125.092 18.6542C125.092 16.6192 125.879 14.9707 127.209 14.9707C128.6 14.9707 129.331 16.6192 129.331 18.6542C129.331 20.6896 128.6 22.3376 127.209 22.3376H127.209ZM130.813 16.4921C130.619 15.8641 130.353 15.333 130.02 14.9039C129.695 14.4808 129.275 14.1397 128.793 13.9075C127.791 13.4488 126.639 13.4488 125.637 13.9075C125.158 14.1412 124.74 14.4823 124.416 14.9039C124.076 15.3325 123.816 15.8641 123.623 16.4921C123.429 17.1207 123.339 17.8327 123.339 18.63C123.339 19.4274 123.429 20.152 123.623 20.7856C123.816 21.4191 124.076 21.9573 124.416 22.4044C125.575 23.95 127.77 24.2645 129.318 23.1064C129.584 22.9069 129.821 22.6707 130.021 22.4044C130.376 21.9146 130.645 21.3669 130.813 20.7856C131.007 20.1515 131.097 19.433 131.097 18.63C131.097 17.8266 131.004 17.1207 130.813 16.4921Z" fill="#040000"/>
    <defs>
        <linearGradient id="paint0_linear" x1="0" y1="32.0986" x2="26.5949" y2="32.0986" gradientUnits="userSpaceOnUse">
            <stop stop-color="#2D2D4B"/>
            <stop offset="1" stop-color="#1D1D3A"/>
        </linearGradient>
        <linearGradient id="paint1_linear" x1="7.51877" y1="27.5651" x2="28.4038" y2="27.5651" gradientUnits="userSpaceOnUse">
            <stop stop-color="#95A1D4"/>
            <stop offset="1" stop-color="#594DA0"/>
        </linearGradient>
    </defs>
</svg>
