<?xml version="1.0" encoding="UTF-8"?>
<svg width="178px" height="44px" viewBox="0 0 178 44" version="1.1"
    xmlns="http://www.w3.org/2000/svg"
    xmlns:xlink="http://www.w3.org/1999/xlink">
    <!-- Generator: Sketch 53.2 (72643) - https://sketchapp.com -->
    <title>Set + TokenSets</title>
    <desc>Created with Sketch.</desc>
    <defs>
        <linearGradient x1="50%" y1="0%" x2="50%" y2="100%" id="linearGradient-1">
            <stop stop-color="#3100FF" offset="0%"></stop>
            <stop stop-color="#3100FF" stop-opacity="0" offset="100%"></stop>
        </linearGradient>
    </defs>
    <g id="♠️-Symbols" stroke="none" stroke-width="1" fill="none" fill-rule="evenodd">
        <g id="V1.5_Nav" transform="translate(-85.000000, -4.000000)">
            <g id="Set-+-TokenSets" transform="translate(83.000000, 4.000000)">
                <g id="Group">
                    <g id="Group-20-Copy" transform="translate(0.223589, 0.164535)" fill="url(#linearGradient-1)">
                        <g id="Group-19">
                            <g id="Group-2-Copy" transform="translate(16.566618, 15.200993) rotate(-90.000000) translate(-16.566618, -15.200993) translate(1.566618, 0.700993)">
                                <ellipse id="Oval" cx="14.8327083" cy="14.255783" rx="14.8327083" ry="14.2274455"></ellipse>
                            </g>
                            <g id="Group-2-Copy-2" transform="translate(15.481025, 29.037061) rotate(-270.000000) translate(-15.481025, -29.037061) translate(0.481025, 14.537061)">
                                <ellipse id="Oval" cx="14.8327083" cy="14.255783" rx="14.8327083" ry="14.2274455"></ellipse>
                            </g>
                        </g>
                    </g>
                    <path d="M51.0165589,35.3475309 C47.1101493,35.3475309 43.9361914,34.4406858 41.4249281,33.0106608 L43.6222835,26.3488372 L43.7966768,26.3488372 C45.0174298,31.2318493 48.8192035,33.7431126 52.3419479,33.7431126 C54.3300314,33.7431126 55.794935,32.5921169 55.794935,30.7435481 C55.794935,29.627431 55.3415124,28.5810713 53.3185503,27.6742262 L47.5286931,25.0234482 C44.1105847,23.41903 42.3317732,20.5589801 42.3317732,17.4896582 C42.3317732,13.6878845 44.7384005,9.53732429 51.714132,9.53732429 C54.8532112,9.53732429 58.4805916,10.5488054 60.5384324,11.6998011 L58.0271691,17.4199009 L57.8527758,17.4199009 C56.4576295,13.129826 53.353429,11.0719852 50.3189857,11.0719852 C47.7728437,11.0719852 46.8659986,12.3624956 46.8659986,13.5134913 C46.8659986,14.664487 47.4589358,15.7457253 49.3075047,16.6525704 L55.2717551,19.4777417 C59.1084074,21.2565532 60.2594031,23.4539087 60.2594031,26.4883519 C60.2594031,31.4411212 56.5622654,35.3475309 51.0165589,35.3475309 Z M71.9299127,29.9762176 C73.6738456,29.9762176 74.9643559,29.4530377 75.9060797,28.1276488 L76.1851089,28.1974061 C75.2433852,33.5687193 71.6160048,35.1731376 68.8257122,35.1731376 C64.8146666,35.1731376 60.8733783,31.9643011 60.8733783,25.860536 C60.8733783,20.0009216 64.3263654,15.8154827 69.0698628,15.8154827 C72.0345487,15.8154827 76.2548662,17.3850222 76.2548662,24.0119672 L66.2098129,24.0119672 C66.7329927,27.9532555 68.8257122,29.9762176 71.9299127,29.9762176 Z M68.3025323,16.9664784 C66.8725074,16.9664784 66.0702982,18.8150472 66.0702982,21.9541264 C66.0702982,22.302913 66.0702982,22.6168209 66.1051769,22.9307288 L70.4301304,22.9307288 C70.4301304,18.326746 69.6976786,16.9664784 68.3025323,16.9664784 Z M89.4251581,29.9064603 L89.739066,30.0110963 C88.9717355,32.5921169 86.8790161,35.1731376 83.2516357,35.1731376 C79.9381632,35.1731376 78.4732596,33.0455395 78.4732596,30.1506109 L78.4732596,17.3152649 L76.7642054,17.3152649 L76.7642054,17.1408716 C79.449862,14.8388802 82.3099119,12.7112821 85.0653259,10.3046548 L85.1002045,10.3046548 L85.1002045,16.4084198 L88.309041,16.4084198 L88.309041,17.2803863 L85.1002045,17.2803863 L85.1002045,29.2088871 C85.1002045,30.7086694 85.762899,31.6852718 86.983652,31.6852718 C88.3439197,31.6852718 89.1112502,30.7784267 89.4251581,29.9064603 Z" id="Set-Protocol" fill="#0F0835"></path>
                </g>
                <path d="M101.083448,10.3046548 L101.083448,35.3475309" id="Line" stroke="#CECDD9" stroke-linecap="square"></path>
                <path d="M115.316896,29 L115.316896,20.46 L112.530896,20.46 L112.530896,18.99 L119.978896,18.99 L119.978896,20.46 L117.192896,20.46 L117.192896,29 L115.316896,29 Z M123.438451,27.824 C124.698451,27.824 125.454451,26.886 125.454451,25.388 L125.454451,25.29 C125.454451,23.778 124.698451,22.854 123.438451,22.854 C122.178451,22.854 121.408451,23.764 121.408451,25.276 L121.408451,25.388 C121.408451,26.886 122.150451,27.824 123.438451,27.824 Z M123.424451,29.14 C121.268451,29.14 119.672451,27.642 119.672451,25.416 L119.672451,25.304 C119.672451,23.036 121.282451,21.524 123.438451,21.524 C125.580451,21.524 127.190451,23.022 127.190451,25.262 L127.190451,25.374 C127.190451,27.656 125.580451,29.14 123.424451,29.14 Z M128.592007,29 L128.592007,18.29 L130.286007,18.29 L130.286007,24.898 L132.904007,21.678 L134.752007,21.678 L131.910007,25.038 L134.990007,29 L133.030007,29 L130.286007,25.402 L130.286007,29 L128.592007,29 Z M138.897562,29.14 C136.741562,29.14 135.187562,27.726 135.187562,25.416 L135.187562,25.304 C135.187562,23.036 136.741562,21.524 138.827562,21.524 C140.647562,21.524 142.285562,22.602 142.285562,25.22 L142.285562,25.71 L136.923562,25.71 C136.979562,27.096 137.679562,27.88 138.939562,27.88 C139.961562,27.88 140.493562,27.474 140.619562,26.76 L142.257562,26.76 C142.019562,28.3 140.773562,29.14 138.897562,29.14 Z M136.951562,24.576 L140.605562,24.576 C140.521562,23.316 139.877562,22.756 138.827562,22.756 C137.805562,22.756 137.119562,23.442 136.951562,24.576 Z M143.673118,29 L143.673118,21.678 L145.367118,21.678 L145.367118,22.84 C145.717118,22.126 146.529118,21.524 147.733118,21.524 C149.203118,21.524 150.239118,22.378 150.239118,24.394 L150.239118,29 L148.545118,29 L148.545118,24.548 C148.545118,23.442 148.097118,22.938 147.089118,22.938 C146.137118,22.938 145.367118,23.526 145.367118,24.688 L145.367118,29 L143.673118,29 Z M155.602673,29.14 C152.872673,29.14 151.724673,27.782 151.584673,25.892 L153.376673,25.892 C153.502673,26.9 153.908673,27.74 155.602673,27.74 C156.708673,27.74 157.492673,27.124 157.492673,26.2 C157.492673,25.276 157.030673,24.926 155.406673,24.66 C153.012673,24.338 151.878673,23.61 151.878673,21.734 C151.878673,20.096 153.278673,18.864 155.364673,18.864 C157.520673,18.864 158.808673,19.844 159.004673,21.762 L157.296673,21.762 C157.114673,20.712 156.512673,20.264 155.364673,20.264 C154.230673,20.264 153.642673,20.81 153.642673,21.58 C153.642673,22.392 153.978673,22.798 155.714673,23.05 C158.066673,23.372 159.284673,24.044 159.284673,26.046 C159.284673,27.782 157.814673,29.14 155.602673,29.14 Z M164.046229,29.14 C161.890229,29.14 160.336229,27.726 160.336229,25.416 L160.336229,25.304 C160.336229,23.036 161.890229,21.524 163.976229,21.524 C165.796229,21.524 167.434229,22.602 167.434229,25.22 L167.434229,25.71 L162.072229,25.71 C162.128229,27.096 162.828229,27.88 164.088229,27.88 C165.110229,27.88 165.642229,27.474 165.768229,26.76 L167.406229,26.76 C167.168229,28.3 165.922229,29.14 164.046229,29.14 Z M162.100229,24.576 L165.754229,24.576 C165.670229,23.316 165.026229,22.756 163.976229,22.756 C162.954229,22.756 162.268229,23.442 162.100229,24.576 Z M171.313785,29.126 C169.857785,29.126 169.101785,28.342 169.101785,26.956 L169.101785,22.952 L168.121785,22.952 L168.121785,21.678 L169.101785,21.678 L169.101785,20.068 L170.795785,20.068 L170.795785,21.678 L172.405785,21.678 L172.405785,22.952 L170.795785,22.952 L170.795785,26.802 C170.795785,27.446 171.103785,27.74 171.635785,27.74 C171.971785,27.74 172.223785,27.698 172.461785,27.6 L172.461785,28.944 C172.195785,29.042 171.831785,29.126 171.313785,29.126 Z M176.43934,29.14 C174.54934,29.14 173.44334,28.272 173.37334,26.718 L174.96934,26.718 C175.05334,27.46 175.43134,27.894 176.42534,27.894 C177.33534,27.894 177.74134,27.572 177.74134,26.956 C177.74134,26.354 177.25134,26.13 176.17334,25.948 C174.24134,25.64 173.52734,25.094 173.52734,23.722 C173.52734,22.252 174.89934,21.524 176.27134,21.524 C177.76934,21.524 178.95934,22.084 179.14134,23.736 L177.57334,23.736 C177.43334,23.064 177.05534,22.756 176.27134,22.756 C175.54334,22.756 175.10934,23.106 175.10934,23.624 C175.10934,24.156 175.45934,24.366 176.62134,24.562 C178.34334,24.828 179.36534,25.248 179.36534,26.802 C179.36534,28.286 178.31534,29.14 176.43934,29.14 Z" id="TokenSets" fill="#2D2CE5" fill-rule="nonzero"></path>
            </g>
        </g>
    </g>
</svg>