<svg id="logo"
  xmlns="http://www.w3.org/2000/svg" viewBox="0 0 137 34.316">
  <defs>
    <style>
      .cls-1 {
        fill: #ff4a4a;
      }
    </style>
  </defs>
  <path id="Fill_1" data-name="Fill 1" class="cls-1" d="M40.635,34.02H34.841a1.968,1.968,0,0,1-1.971-1.965V16.786L22.7,23.145a2.634,2.634,0,0,1-2.792,0L9.736,16.785v15.27A1.968,1.968,0,0,1,7.765,34.02H1.971A1.968,1.968,0,0,1,0,32.055V2.625A2.628,2.628,0,0,1,4.112.464L20.19,11.445a1.974,1.974,0,0,0,2.228,0L38.493.464a2.627,2.627,0,0,1,4.113,2.16V32.055a1.968,1.968,0,0,1-1.971,1.965" transform="translate(47.24 0.296)"/>
  <path id="Fill_4" data-name="Fill 4" class="cls-1" d="M38.511,34.054H2.615A2.612,2.612,0,0,1,0,31.444V1.957A1.959,1.959,0,0,1,1.961,0H7.728A1.959,1.959,0,0,1,9.689,1.957v22.43H31.437V1.957A1.958,1.958,0,0,1,33.4,0h5.767a1.959,1.959,0,0,1,1.961,1.957V31.445a2.612,2.612,0,0,1-2.615,2.609" transform="translate(0 0)"/>
  <path id="Fill_6" data-name="Fill 6" class="cls-1" d="M2.615,0h35.9a2.612,2.612,0,0,1,2.615,2.609V32.1a1.959,1.959,0,0,1-1.961,1.957H33.4A1.959,1.959,0,0,1,31.437,32.1V10.971a1.306,1.306,0,0,0-1.308-1.3H11a1.306,1.306,0,0,0-1.308,1.3V32.1a1.959,1.959,0,0,1-1.961,1.957H1.961A1.959,1.959,0,0,1,0,32.1V2.609A2.612,2.612,0,0,1,2.615,0" transform="translate(95.874 0)"/>
  <path id="Fill_8" data-name="Fill 8" class="cls-1" d="M0,1.943V7.749A1.953,1.953,0,0,0,1.963,9.692H7.729A1.953,1.953,0,0,0,9.692,7.749V1.943A1.953,1.953,0,0,0,7.729,0H1.963A1.953,1.953,0,0,0,0,1.943" transform="translate(111.591 15.979)"/>
</svg>
