<?xml version="1.0" encoding="UTF-8"?>
<svg width="20px" height="20px" viewBox="0 0 20 20" version="1.1" xmlns="http://www.w3.org/2000/svg" xmlns:xlink="http://www.w3.org/1999/xlink">
    <!-- Generator: Sketch 57.1 (83088) - https://sketch.com -->
    <title>icon/coin/coin-default</title>
    <desc>Created with Sketch.</desc>
    <g id="icon/coin/coin-default" stroke="none" stroke-width="1" fill="none" fill-rule="evenodd">
        <circle id="Oval" fill="#C1C9DC" cx="10" cy="10" r="9.1"></circle>
        <path d="M9.99977882,17.1234451 L9.99977882,15.5234451 C10.2088173,15.5234451 10.416105,15.5119051 10.6211038,15.4890319 L10.7985267,17.0791643 C10.5363133,17.1084214 10.2698005,17.1234451 9.99977882,17.1234451 Z M11.5900185,16.945282 L11.2343255,15.3853197 C11.4360232,15.3393298 11.6344568,15.2820633 11.8289114,15.2138499 L12.3585393,16.7236493 C12.1084493,16.8113792 11.8519818,16.8855507 11.5900185,16.945282 Z M13.0993769,16.4155547 L12.4023044,14.9753846 C12.5883895,14.8853155 12.7692729,14.7847974 12.9441329,14.6743577 L13.7985316,16.0271337 C13.5736676,16.1691553 13.3403043,16.2989408 13.0993769,16.4155547 Z M14.4488224,15.5635888 L13.448779,14.3146239 C13.6105375,14.1851042 13.7649903,14.0465865 13.9113475,13.8997947 L15.0443944,15.0294869 C14.8560889,15.2183516 14.657246,15.3967045 14.4488224,15.5635888 Z M16.0427512,13.7736182 C15.900906,14.0002803 15.7466623,14.2183896 15.5809701,14.4269962 L14.3280922,13.4318595 C14.4569527,13.2696241 14.5766123,13.1003422 14.686442,12.9248394 L16.0427512,13.7736182 Z M16.4335603,13.0617629 L14.9893005,12.3732038 C15.0781494,12.1868423 15.1564474,11.9955568 15.2237767,11.8001281 L16.7365163,12.3212987 C16.6491438,12.5749045 16.5478543,12.82203 16.4335603,13.0617629 Z M16.9503467,11.5672166 L15.3892118,11.2167057 C15.4343365,11.0157256 15.4682414,10.8116905 15.4906712,10.6052269 L17.0813122,10.778031 C17.0522193,11.0458278 17.0082842,11.3091696 16.9503467,11.5672166 Z M17.1232727,9.97289876 L15.5232837,9.97883613 C15.5225085,9.76994159 15.5102032,9.56281808 15.4865755,9.35800608 L17.0760337,9.17464164 C17.1062611,9.43666192 17.1222712,9.70301136 17.1232727,9.97289876 Z M16.9391192,8.38340047 L15.3805225,8.74503083 C15.3337471,8.54343249 15.2756935,8.34513075 15.2066949,8.15084414 L16.7144369,7.61538721 C16.8031787,7.86526681 16.8783675,8.12156595 16.9391192,8.38340047 Z M16.403623,6.87602258 L14.9661166,7.57857175 C14.8753376,7.3928263 14.7741293,7.2123176 14.6630226,7.03786801 L16.0125538,6.17835338 C16.1554317,6.40268718 16.2861001,6.63555555 16.403623,6.87602258 Z M15.5467177,5.53001982 L14.3014967,6.53472115 C14.1713739,6.37344774 14.0322827,6.21951405 13.8849496,6.07370809 L15.0104114,4.93645888 C15.1999793,5.1240619 15.3790669,5.32223443 15.5467177,5.53001982 Z M14.405905,4.40211861 L13.4154565,5.65870598 C13.25274,5.53045201 13.0830114,5.41142722 12.9070969,5.30225738 L13.7507744,3.94276915 C13.9779875,4.08377411 14.1966809,4.23720716 14.405905,4.40211861 Z M13.0372295,3.55453873 L12.3541787,5.00141175 C12.1674921,4.91327932 11.975916,4.83571466 11.7802295,4.76913228 L12.2956135,3.25441143 C12.5495679,3.34081946 12.7970771,3.44116576 13.0372295,3.55453873 Z M11.5407643,3.0434744 L11.1962046,4.60593354 C10.9950535,4.56157489 10.7908758,4.52844191 10.584295,4.5067879 L10.7510947,2.91550609 C11.0190188,2.94359015 11.2825214,2.98652563 11.5407643,3.0434744 Z M9.94615709,2.8765549 L9.95795242,4.47651141 C9.74901234,4.47805178 9.54186664,4.49113344 9.33705959,4.5155469 L9.14767678,2.92679452 C9.40973431,2.89555668 9.67615916,2.8785454 9.94615709,2.8765549 Z M8.35705411,3.06669811 L8.72461426,4.62390699 C8.52326793,4.67143234 8.32524582,4.73022025 8.13126846,4.79993518 L7.59012079,3.29422632 C7.83960878,3.20456102 8.09554809,3.12842341 8.35705411,3.06669811 Z M6.8516711,3.60795568 L7.55968445,5.0427787 C7.37428505,5.13426402 7.19415723,5.23615851 7.02012393,5.34792761 L6.15551096,4.00165706 C6.37930717,3.85792881 6.61167269,3.72638289 6.8516711,3.60795568 Z M5.50912384,4.46978758 L6.5184683,5.71124792 C6.35768773,5.84196734 6.2042803,5.9816249 6.05903206,6.12949134 L4.91760095,5.00827101 C5.10449322,4.81800989 5.30198638,4.63819655 5.50912384,4.46978758 Z M4.38507003,5.61533418 L5.64544216,6.60096196 C5.51783822,6.76413557 5.39948853,6.93428311 5.29101506,7.11057838 L3.92830679,6.2721118 C4.06842441,6.04438724 4.22099512,5.82514508 4.38507003,5.61533418 Z M3.54292511,6.98691238 L4.99239149,7.66444262 C4.90498972,7.85142456 4.82816937,8.04326001 4.76234138,8.23917231 L3.2456692,7.7295592 C3.33110274,7.47529834 3.43049146,7.22744598 3.54292511,6.98691238 Z M3.0375902,8.4852821 L4.60135141,8.82388347 C4.55776018,9.02520068 4.52540006,9.22951607 4.50452234,9.43620942 L2.91262252,9.27541455 C2.93969717,9.00737041 2.98163189,8.74371409 3.0375902,8.4852821 Z M2.8766772,10.0801191 L4.47657982,10.0624662 C4.47888365,10.2712647 4.49271935,10.4782486 4.51787628,10.6828714 L2.92983288,10.8781101 C2.89763841,10.6162451 2.87965481,10.349983 2.8766772,10.0801191 Z M3.07280932,11.6688126 L4.62860846,11.2953303 C4.67688175,11.4964202 4.73640169,11.6941583 4.8068302,11.887822 L3.30317399,12.4346474 C3.21258881,12.185557 3.1355056,11.9299838 3.07280932,11.6688126 Z M4.01639711,13.8672135 C3.8717237,13.6438394 3.73921874,13.4118507 3.61982075,13.1721862 L5.05194078,12.4587212 C5.14418389,12.6438785 5.24682769,12.8237231 5.3593331,12.9974303 L4.01639711,13.8672135 Z M4.48699007,14.5117821 L5.72457847,13.4976939 C5.85595064,13.6580198 5.99623555,13.8109335 6.14470062,13.9556502 L5.0278858,15.1013922 C4.83684702,14.9151767 4.65622929,14.7183208 4.48699007,14.5117821 Z M5.63630919,15.631045 L6.61721901,14.3669975 C6.78084825,14.493975 6.95141524,14.6116725 7.12809356,14.7194718 L6.29473547,16.0853101 C6.06649673,15.9460516 5.84670522,15.7943138 5.63630919,15.631045 Z M7.01130238,16.4681559 L7.6832998,15.0161161 C7.87063376,15.1028134 8.0627884,15.1789092 8.25898865,15.2439955 L7.75521026,16.7626157 C7.50056216,16.6781402 7.2522896,16.5796837 7.01130238,16.4681559 Z M8.84419827,15.402713 C9.04569338,15.4455391 9.25015884,15.4771271 9.45697742,15.4972278 L9.3022026,17.0897242 C9.03402277,17.0636598 8.77019769,17.0227247 8.51156239,16.967754 L8.84419827,15.402713 Z" id="Oval" fill="#FFFFFF" fill-rule="nonzero"></path>
    </g>
</svg>