<?xml version="1.0" encoding="UTF-8"?>
<svg width="20px" height="20px" viewBox="0 0 20 20" version="1.1" xmlns="http://www.w3.org/2000/svg" xmlns:xlink="http://www.w3.org/1999/xlink">
    <!-- Generator: Sketch 57.1 (83088) - https://sketch.com -->
    <title>coin/imbtc</title>
    <desc>Created with Sketch.</desc>
    <defs>
        <linearGradient x1="48.3465125%" y1="0%" x2="48.3465125%" y2="100%" id="linearGradient-1">
            <stop stop-color="#20203D" offset="0%"></stop>
            <stop stop-color="#292946" offset="93.2292%"></stop>
        </linearGradient>
        <linearGradient x1="32.3155293%" y1="0%" x2="32.3155293%" y2="100%" id="linearGradient-2">
            <stop stop-color="#51516C" offset="0%"></stop>
            <stop stop-color="#797ABC" offset="93.2292%"></stop>
        </linearGradient>
        <linearGradient x1="38.7336031%" y1="21.9958258%" x2="48.7825499%" y2="110.085737%" id="linearGradient-3">
            <stop stop-color="#21213E" offset="5.94619%"></stop>
            <stop stop-color="#7A7BBD" offset="100%"></stop>
        </linearGradient>
    </defs>
    <g id="coin/imbtc" stroke="none" stroke-width="1" fill="none" fill-rule="evenodd">
        <g id="Group" transform="translate(0.900000, 1.355000)">
            <path d="M14.7409337,2.5316083 C13.506948,1.62562856 11.9836936,1.09052203 10.3354525,1.09052203 C6.21989051,1.09052203 2.88357092,4.42684163 2.88357092,8.54245783 C2.88357092,12.6580198 6.21989051,15.9943394 10.3354525,15.9943394 C12.2711195,15.9943394 14.0343743,15.2563437 15.3592002,14.0463689 C13.7767045,16.0102202 11.3517685,17.2666449 8.63333603,17.2666449 C3.86525267,17.2666449 0,13.4013814 0,8.63329808 C0,3.86526893 3.86525267,0 8.63333603,0 C11.018814,0 13.1783838,0.967535392 14.7409337,2.5316083 Z" id="Path" fill="url(#linearGradient-1)"></path>
            <path d="M9.01891929,1.67016522 C12.4478677,2.06748834 15.1097147,4.98125984 15.1097147,8.51671254 C15.1097147,12.1940083 12.2300354,15.1987284 8.60271267,15.3988371 C9.21198192,15.5697859 9.85447615,15.6612224 10.5183796,15.6612224 C14.4258654,15.6612224 17.5935127,12.4935751 17.5935127,8.58608934 C17.5935127,4.67860354 14.4258654,1.51096172 10.5183796,1.51096172 C10.0039073,1.51096172 9.50222628,1.56587779 9.01891929,1.67016522 Z" id="Path" fill="url(#linearGradient-2)"></path>
            <path d="M7.82235827,4.10586551 L8.33805454,4.10586551 L8.33805454,5.38842374 L8.59718516,5.38153879 L8.96984997,5.38153879 C9.09276658,5.38153879 9.21163322,5.38302378 9.32638239,5.38592626 L9.32638239,4.10586551 L9.84207866,4.10586551 L9.84207866,5.41096858 C10.5579785,5.46429319 11.0729323,5.59011228 11.387075,5.78829085 C11.8167769,6.05950389 12.0316278,6.42906372 12.0316278,6.89703784 C12.0316278,7.25033028 11.8898114,7.54942062 11.6061109,7.79424135 C11.3224105,8.03906208 10.8952061,8.23123319 10.3244977,8.37068718 C10.9959153,8.48226387 11.4995292,8.67983495 11.8352043,8.9634004 C12.1709468,9.24696585 12.3388181,9.61652567 12.3388181,10.0721474 C12.3388181,10.5835237 12.1239672,10.9863608 11.6941978,11.2807936 C11.3070881,11.5460667 10.68967,11.6917982 9.84207866,11.718123 L9.84207866,13.0966655 L9.32638239,13.0966655 L9.32638239,11.7224429 L8.33805454,11.7224429 L8.33805454,13.0966655 L7.82235827,13.0966655 L7.82235827,11.7224429 L5.97354663,11.7224429 L5.97354663,11.2064092 C6.33277904,11.2064092 6.57111981,11.1545021 6.68863646,11.0506878 C6.80615311,10.9468736 6.86487769,10.74154 6.86487769,10.4347548 L6.86487769,6.73895398 C6.86487769,6.44141613 6.80952809,6.2384451 6.69869389,6.12997338 C6.58792719,6.02150166 6.34621144,5.96729956 5.97354663,5.96729956 L5.97354663,5.45126579 L7.82235827,5.40212614 L7.82235827,4.10586551 Z M9.00008975,8.10102663 L8.65260226,8.10102663 L8.65260226,5.93003983 C9.01514214,5.93003983 9.28959516,5.95487965 9.47596131,6.00442429 C9.66225996,6.05403643 9.81251388,6.16406063 9.92665555,6.3344969 C10.0407972,6.50493317 10.0979018,6.73740149 10.0979018,7.03183436 C10.0979018,7.42542401 10.00725,7.70203702 9.82594628,7.86160586 C9.64464259,8.02124221 9.36937958,8.10102663 9.00008975,8.10102663 Z M8.65260226,8.66822503 L8.65260226,10.4579746 C8.65260226,10.6315158 8.67190712,10.7632749 8.71051685,10.8531167 C8.74912657,10.9430261 8.82465852,11.018153 8.93711271,11.0785651 C9.04956689,11.1390447 9.20819075,11.1692169 9.41298427,11.1692169 C9.73191946,11.1692169 9.97113773,11.0654027 10.1305716,10.8577742 C10.2900729,10.6501457 10.3697898,10.3386355 10.3697898,9.92337846 C10.3697898,9.59175335 10.3177477,9.33221773 10.2136635,9.14470409 C10.1096467,8.95719044 9.96695276,8.83089885 9.78564907,8.76582932 C9.60434538,8.70075979 9.33576482,8.66822503 8.9799074,8.66822503 L8.65260226,8.66822503 Z" id="Shape" fill="url(#linearGradient-3)"></path>
        </g>
    </g>
</svg>