<?xml version="1.0" encoding="UTF-8"?>
<svg width="20px" height="20px" viewBox="0 0 20 20" version="1.1" xmlns="http://www.w3.org/2000/svg" xmlns:xlink="http://www.w3.org/1999/xlink">
    <!-- Generator: Sketch 57.1 (83088) - https://sketch.com -->
    <title>coin/knc</title>
    <desc>Created with Sketch.</desc>
    <g id="coin/knc" stroke="none" stroke-width="1" fill="none" fill-rule="evenodd">
        <path d="M8.65671642,11.3432836 L16.2183887,15.5250152 C16.4523962,15.6568696 16.485069,15.9665147 16.2924984,16.1430188 L16.2602173,16.1697361 L11.1524866,19.9216538 C10.9302092,20.0843913 10.6058776,19.980865 10.5292865,19.7286226 L10.5204107,19.6933152 L8.65671642,11.3432836 Z M8.33322078,0.38072397 C8.61940919,0.15938789 9.02186167,0.416860475 8.94584287,0.773708439 L7.01407101,9.85300481 L8.94584287,18.9277841 C9.02186167,19.2846321 8.61940919,19.5421047 8.33322078,19.3207686 L3.3875271,15.5083675 C3.13264053,15.3141338 2.98507463,15.0069735 2.98507463,14.6862621 L2.98507463,5.01523048 C2.98507463,4.69451902 3.13264053,4.38735875 3.3875271,4.19312502 L8.33322078,0.38072397 Z M17.0132565,6.02547108 L17.0149254,6.06264125 L17.0149254,13.9379545 C17.0149254,14.2234064 16.7156846,14.4093826 16.4597368,14.2933051 L16.426626,14.276435 L8.95522388,10.0025544 L16.426626,5.72416075 C16.6781617,5.58143479 16.9878831,5.74542548 17.0132565,6.02547108 Z M11.1258173,0.0592316452 L11.1572844,0.0803132436 L16.2606742,3.83137057 C16.4770338,3.99296148 16.4668781,4.30402394 16.2501322,4.45369751 L16.2141953,4.47594367 L8.65671642,8.65671642 L10.5205227,0.308599549 C10.5783183,0.0431413044 10.8912649,-0.083072363 11.1258173,0.0592316452 Z" id="Shape" fill="#31CB9E" fill-rule="nonzero"></path>
    </g>
</svg>