<?xml version="1.0" encoding="UTF-8"?>
<svg width="20px" height="20px" viewBox="0 0 20 20" version="1.1" xmlns="http://www.w3.org/2000/svg" xmlns:xlink="http://www.w3.org/1999/xlink">
    <!-- Generator: Sketch 57.1 (83088) - https://sketch.com -->
    <title>icon/coin/pax</title>
    <desc>Created with Sketch.</desc>
    <g id="icon/coin/pax" stroke="none" stroke-width="1" fill="none" fill-rule="evenodd">
        <g id="paxos-logo" transform="translate(1.100000, 1.500000)" fill-rule="nonzero">
            <path d="M4.93648975,2.23614916 C5.27588587,1.84937201 5.58519018,1.51926916 5.88068186,1.24285773 C0.886428583,1.08078916 2.34020815,4.71888057 0.712784061,8.416132 C-1.16129418,12.6741606 0.933292873,14.2968348 4.05445451,14.8024291 C3.62182313,14.2878863 3.26861438,13.6992691 2.99976135,13.0639206 C0.976210695,10.4966749 1.79066271,5.81955487 4.93648975,2.23614916" id="Fill-1" fill="#B3D234"></path>
            <path d="M16.9538758,6.77188174 C16.4891793,8.09080178 15.6362493,9.57079613 14.4306037,11.0274247 C13.4908513,12.162402 12.4460243,13.0562648 11.3676522,13.7035449 C10.1210621,14.5173677 8.57454048,14.9976078 6.84549476,14.9976078 C5.87762379,14.9976078 4.92603205,14.9434192 4.05435622,14.8022306 C4.56937012,15.4142135 5.19537836,15.9222935 5.92350148,16.2767564 C10.4387527,18.4771107 10.7238849,14.389602 15.5010828,12.315522 C18.1836935,11.1507162 18.1935596,8.87380182 16.9538758,6.77188174" id="Fill-3" fill="#0095D9"></path>
            <path d="M11.3661226,2.51822797 C12.0320888,2.64052511 12.6640168,2.86125654 13.2298414,3.18340511 C14.7462713,4.04793652 16.1275346,5.37083365 16.953826,6.77178218 C17.7672914,4.46305078 17.3884306,2.64798225 15.6085742,2.31937083 C13.6526067,1.95894226 12.1233509,1.84310798 10.6537854,0.809050852 C8.84383714,-0.464629132 7.25735755,-0.0445434232 5.88053405,1.24305656 C5.97771576,1.24603942 6.07687077,1.2505137 6.17898555,1.25647942 C8.08907539,1.36982799 9.91184965,1.7446737 11.3661226,2.51822797" id="Fill-5" fill="#EEE809"></path>
            <path d="M4.93648979,2.23614908 C1.79066276,5.81955478 0.97621075,10.4966747 2.9997614,13.0639204 C2.09108751,10.9147719 2.15423097,8.23417761 3.43485932,6.09397761 C5.13973282,3.24435479 8.55934595,2.00199479 11.3662702,2.51852622 C9.91199734,1.7444748 8.08922316,1.37012623 6.17962672,1.25628051 C6.07701858,1.2503148 5.97786362,1.24633765 5.8806819,1.24285765 C5.58519022,1.51926908 5.27588591,1.84937194 4.93648979,2.23614908" id="Fill-7" fill="#51B849"></path>
            <path d="M13.2297424,3.18360405 C12.6639178,2.86095833 12.0319899,2.64072404 11.3660237,2.51842689 C13.2810465,3.53707263 14.5552619,5.24873552 14.5409559,7.97506704 C14.5281299,10.3404728 13.3155781,12.4309586 11.3675036,13.7036443 C12.4458756,13.0563643 13.4911958,12.1625014 14.4304548,11.0275243 C15.6365936,9.57089565 16.4890304,8.0909013 16.9537268,6.7719813 C16.1274354,5.37103269 14.7461722,4.04763835 13.2297424,3.18360405" id="Fill-9" fill="#00845D"></path>
            <path d="M11.0510462,12.4074432 C8.88887598,13.8073974 6.00598232,13.182986 4.61139978,11.0124604 C3.21681722,8.8419347 3.9064622,6.04699761 6.00055594,4.54662052 C8.34229038,2.86926056 11.3455513,3.53095769 12.4402024,5.94160335 C13.5077216,8.2920947 13.2127232,11.0074889 11.0510462,12.4074432 M11.3662705,2.51827764 C8.55934617,2.00224337 5.13973299,3.24410618 3.43485947,6.09372892 C2.15423111,8.23392888 2.09059433,10.9150202 2.99976154,13.0636715 C3.26861457,13.6990201 3.62133001,14.2881344 4.05445472,14.8026772 C4.92613047,14.9438658 5.87772221,14.9975572 6.84509982,14.9975572 C8.57463873,14.9975572 10.1211603,14.5173172 11.3672571,13.7034944 C13.3158249,12.4313058 14.5283767,10.3403231 14.5407094,7.97491744 C14.5555086,5.24858609 13.2808,3.53692332 11.3662705,2.51827764" id="Fill-11" fill="#005121"></path>
        </g>
    </g>
</svg>