<?xml version="1.0" encoding="UTF-8"?>
<svg width="20px" height="20px" viewBox="0 0 20 20" version="1.1" xmlns="http://www.w3.org/2000/svg" xmlns:xlink="http://www.w3.org/1999/xlink">
    <!-- Generator: Sketch 57.1 (83088) - https://sketch.com -->
    <title>icon/coin/sai</title>
    <desc>Created with Sketch.</desc>
    <defs>
        <radialGradient cx="50%" cy="44.6176382%" fx="50%" fy="44.6176382%" r="53.9400541%" id="radialGradient-1">
            <stop stop-color="#FFDB8C" offset="0%"></stop>
            <stop stop-color="#FFAE38" offset="100%"></stop>
        </radialGradient>
    </defs>
    <g id="icon/coin/sai" stroke="none" stroke-width="1" fill="none" fill-rule="evenodd">
        <path d="M10,0.35 L19.65,10 L10,19.65 L0.35,10 L10,0.35 Z M9.40993973,3.25813214 L3.93701672,9.15219172 C3.85151178,9.24427619 3.8564132,9.38864464 3.94796434,9.47464767 C3.9899725,9.51411008 4.04530952,9.53605769 4.10278978,9.53605769 L7.43413776,9.53598314 C7.6218958,9.53597894 7.80130813,9.45794328 7.929911,9.32034584 L10.0450355,7.05728813 L12.1599113,9.3203199 C12.2885153,9.4579331 12.467938,9.53597911 12.6557082,9.53598361 L15.7116338,9.53605769 C15.8369043,9.53605769 15.9384615,9.43391889 15.9384615,9.3079186 C15.9384615,9.25010383 15.9166415,9.1944447 15.8774081,9.15219185 L10.4045505,3.258135 C10.1480372,2.98188013 9.71744036,2.96708773 9.44278546,3.22509526 C9.43146628,3.23572837 9.42051132,3.24674708 9.40993973,3.25813214 Z" id="Shape" fill="url(#radialGradient-1)"></path>
    </g>
</svg>