<?xml version="1.0" encoding="UTF-8"?>
<svg width="20px" height="20px" viewBox="0 0 20 20" version="1.1" xmlns="http://www.w3.org/2000/svg" xmlns:xlink="http://www.w3.org/1999/xlink">
    <!-- Generator: Sketch 57.1 (83088) - https://sketch.com -->
    <title>coin/snx</title>
    <desc>Created with Sketch.</desc>
    <g id="coin/snx" stroke="none" stroke-width="1" fill="none" fill-rule="evenodd">
        <circle id="Oval" fill="#000000" cx="10" cy="10" r="9.1"></circle>
        <path d="M9.01110978,10.6294322 C7.42871232,10.6294322 6.14592556,9.34664557 6.14592556,7.76424812 C6.14592556,6.18185065 7.42871232,4.89906405 9.01110978,4.89906405 L13.2246424,4.89906405 C13.5722681,4.89906405 13.8540744,5.18087038 13.8540744,5.52849611 C13.8540744,5.87612184 13.5722681,6.15792817 13.2246424,6.15792817 L9.01110978,6.15792817 C8.12396378,6.15792817 7.40478985,6.8771021 7.40478985,7.76424812 C7.40478985,8.65139411 8.12396378,9.37056804 9.01110978,9.37056804 L9.35507144,9.37056782 L10.9888902,9.37056782 C12.5712877,9.37056782 13.8540744,10.6533544 13.8540744,12.2357519 C13.8540744,13.8181493 12.5712877,15.100936 10.9888902,15.100936 L6.77535762,15.100936 C6.42773187,15.100936 6.14592556,14.8191296 6.14592556,14.4715039 C6.14592556,14.1238781 6.42773187,13.8420718 6.77535762,13.8420718 L10.9888902,13.8420718 C11.8760362,13.8420718 12.5952102,13.1228979 12.5952102,12.2357519 C12.5952102,11.3486059 11.8760362,10.6294319 10.9888902,10.6294319 L9.35507144,10.6294319 L9.01110978,10.6294322 Z" id="Path" fill="#FFFFFF" fill-rule="nonzero"></path>
        <polygon id="Path-3" fill-opacity="0.5" fill="#FFFFFF" fill-rule="nonzero" points="7.27272063 14.8470261 6.24944342 14.1137849 12.68546 5.13198039 13.7087372 5.86522158"></polygon>
    </g>
</svg>