<svg width="60" height="61" viewBox="0 0 60 61" fill="none" xmlns="http://www.w3.org/2000/svg">
  <g clip-path="url(#susd-clip0)">
    <path d="M30 60.5526C46.5685 60.5526 60 47.2687 60 30.8822C60 14.4958 46.5685 1.21191 30 1.21191C13.4315 1.21191 0 14.4958 0 30.8822C0 47.2687 13.4315 60.5526 30 60.5526Z" fill="#1E1A31"/>
    <path d="M25.7073 31.8829C25.7013 31.883 25.6954 31.883 25.6894 31.883H21.9113C18.2521 31.883 15.2857 28.8755 15.2857 25.1655C15.2857 21.4555 18.2521 18.448 21.9113 18.448H31.6549C32.4588 18.448 33.1104 19.1087 33.1104 19.9237C33.1104 20.7387 32.4588 21.3994 31.6549 21.3994H21.9113C19.8598 21.3994 18.1968 23.0856 18.1968 25.1655C18.1968 27.2454 19.8598 28.9316 21.9113 28.9316H22.6883C22.6943 28.9315 22.7002 28.9315 22.7062 28.9315H26.4843C30.1435 28.9315 33.1099 31.939 33.1099 35.649C33.1099 39.3589 30.1435 42.3665 26.4843 42.3665H16.7407C15.9368 42.3665 15.2852 41.7058 15.2852 40.8907C15.2852 40.0757 15.9368 39.415 16.7407 39.415H26.4843C28.5358 39.415 30.1988 37.7289 30.1988 35.649C30.1988 33.569 28.5358 31.8829 26.4843 31.8829H25.7073Z" fill="white"/>
    <path fill-rule="evenodd" clip-rule="evenodd" d="M17.8917 41.7711L15.5254 40.052L30.4084 18.9939L32.7747 20.713L17.8917 41.7711Z" fill="white" fill-opacity="0.5"/>
    <path d="M35.4545 39.535H40.173C40.8316 39.535 41.3274 39.4089 41.6606 39.1567C41.9938 38.9045 42.1603 38.5071 42.1603 37.9645C42.1603 37.4219 41.9938 37.0227 41.6606 36.7667C41.3274 36.5106 40.8316 36.3826 40.173 36.3826H35.4545V34.6632H40.08C41.2422 34.6632 42.1294 34.944 42.7414 35.5057C43.3535 36.0674 43.6596 36.887 43.6596 37.9645C43.6596 39.0421 43.3535 39.8597 42.7414 40.4176C42.1294 40.9755 41.2422 41.2544 40.08 41.2544H35.4545V39.535ZM40.94 31.9809C41.3429 31.9503 41.6664 31.7879 41.9105 31.4937C42.1545 31.1995 42.2766 30.8078 42.2766 30.3187C42.2766 29.9137 42.1894 29.5832 42.0151 29.3272C41.8407 29.0712 41.5986 28.9432 41.2887 28.9432C41.0718 28.9432 40.8994 29.0139 40.7715 29.1553C40.6437 29.2966 40.543 29.4953 40.4694 29.7513C40.3958 30.0073 40.3047 30.4028 40.1962 30.9377C40.0955 31.465 39.9657 31.9083 39.8069 32.2674C39.6481 32.6266 39.4118 32.9189 39.098 33.1444C38.7842 33.3698 38.3677 33.4825 37.8486 33.4825C37.376 33.4825 36.9537 33.3545 36.5818 33.0985C36.2099 32.8425 35.9174 32.4872 35.7044 32.0325C35.4913 31.5778 35.3848 31.0638 35.3848 30.4907C35.3848 29.9023 35.4952 29.3731 35.716 28.9031C35.9368 28.4331 36.2409 28.0625 36.6283 27.7912C37.0157 27.5199 37.4535 27.3804 37.9416 27.3728V29.0578C37.5929 29.096 37.3121 29.2412 37.099 29.4934C36.8859 29.7456 36.7794 30.078 36.7794 30.4907C36.7794 30.8728 36.8607 31.1785 37.0235 31.4077C37.1862 31.637 37.4186 31.7516 37.7208 31.7516C37.9377 31.7516 38.1062 31.6828 38.2263 31.5453C38.3464 31.4077 38.4433 31.2129 38.5169 30.9607C38.5905 30.7085 38.6776 30.3188 38.7784 29.7915C38.8791 29.2565 39.005 28.8056 39.1561 28.4388C39.3072 28.072 39.5357 27.7759 39.8418 27.5504C40.1478 27.325 40.5565 27.2123 41.0679 27.2123C41.5638 27.2123 42.0073 27.346 42.3986 27.6135C42.7899 27.881 43.0978 28.2535 43.3225 28.7311C43.5472 29.2088 43.6596 29.7456 43.6596 30.3417C43.6596 30.9836 43.5414 31.5548 43.3051 32.0554C43.0688 32.5559 42.7414 32.9476 42.3231 33.2303C41.9047 33.5131 41.4359 33.6583 40.9168 33.6659L40.94 31.9809ZM35.4545 26.1806V23.3951C35.4545 22.5927 35.6269 21.8839 35.9717 21.2688C36.3165 20.6536 36.7968 20.1798 37.4128 19.8474C38.0288 19.5149 38.7319 19.3487 39.5222 19.3487C40.3125 19.3487 41.0156 19.5149 41.6315 19.8474C42.2475 20.1798 42.7279 20.6536 43.0727 21.2688C43.4175 21.8839 43.5898 22.5927 43.5898 23.3951V26.1806H35.4545ZM42.1371 23.3951C42.1371 22.6691 41.8989 22.1056 41.4224 21.7043C40.9459 21.3031 40.3125 21.1025 39.5222 21.1025C38.7319 21.1025 38.0985 21.3031 37.622 21.7043C37.1455 22.1056 36.9072 22.6691 36.9072 23.3951V24.4612H42.1371V23.3951Z" fill="black"/>
    <path d="M35.4545 39.535H40.173C40.8316 39.535 41.3274 39.4089 41.6606 39.1567C41.9938 38.9045 42.1603 38.5071 42.1603 37.9645C42.1603 37.4219 41.9938 37.0227 41.6606 36.7667C41.3274 36.5106 40.8316 36.3826 40.173 36.3826H35.4545V34.6632H40.08C41.2422 34.6632 42.1294 34.944 42.7414 35.5057C43.3535 36.0674 43.6596 36.887 43.6596 37.9645C43.6596 39.0421 43.3535 39.8597 42.7414 40.4176C42.1294 40.9755 41.2422 41.2544 40.08 41.2544H35.4545V39.535ZM40.94 31.9809C41.3429 31.9503 41.6664 31.7879 41.9105 31.4937C42.1545 31.1995 42.2766 30.8078 42.2766 30.3187C42.2766 29.9137 42.1894 29.5832 42.0151 29.3272C41.8407 29.0712 41.5986 28.9432 41.2887 28.9432C41.0718 28.9432 40.8994 29.0139 40.7715 29.1553C40.6437 29.2966 40.543 29.4953 40.4694 29.7513C40.3958 30.0073 40.3047 30.4028 40.1962 30.9377C40.0955 31.465 39.9657 31.9083 39.8069 32.2674C39.6481 32.6266 39.4118 32.9189 39.098 33.1444C38.7842 33.3698 38.3677 33.4825 37.8486 33.4825C37.376 33.4825 36.9537 33.3545 36.5818 33.0985C36.2099 32.8425 35.9174 32.4872 35.7044 32.0325C35.4913 31.5778 35.3848 31.0638 35.3848 30.4907C35.3848 29.9023 35.4952 29.3731 35.716 28.9031C35.9368 28.4331 36.2409 28.0625 36.6283 27.7912C37.0157 27.5199 37.4535 27.3804 37.9416 27.3728V29.0578C37.5929 29.096 37.3121 29.2412 37.099 29.4934C36.8859 29.7456 36.7794 30.078 36.7794 30.4907C36.7794 30.8728 36.8607 31.1785 37.0235 31.4077C37.1862 31.637 37.4186 31.7516 37.7208 31.7516C37.9377 31.7516 38.1062 31.6828 38.2263 31.5453C38.3464 31.4077 38.4433 31.2129 38.5169 30.9607C38.5905 30.7085 38.6776 30.3188 38.7784 29.7915C38.8791 29.2565 39.005 28.8056 39.1561 28.4388C39.3072 28.072 39.5357 27.7759 39.8418 27.5504C40.1478 27.325 40.5565 27.2123 41.0679 27.2123C41.5638 27.2123 42.0073 27.346 42.3986 27.6135C42.7899 27.881 43.0978 28.2535 43.3225 28.7311C43.5472 29.2088 43.6596 29.7456 43.6596 30.3417C43.6596 30.9836 43.5414 31.5548 43.3051 32.0554C43.0688 32.5559 42.7414 32.9476 42.3231 33.2303C41.9047 33.5131 41.4359 33.6583 40.9168 33.6659L40.94 31.9809ZM35.4545 26.1806V23.3951C35.4545 22.5927 35.6269 21.8839 35.9717 21.2688C36.3165 20.6536 36.7968 20.1798 37.4128 19.8474C38.0288 19.5149 38.7319 19.3487 39.5222 19.3487C40.3125 19.3487 41.0156 19.5149 41.6315 19.8474C42.2475 20.1798 42.7279 20.6536 43.0727 21.2688C43.4175 21.8839 43.5898 22.5927 43.5898 23.3951V26.1806H35.4545ZM42.1371 23.3951C42.1371 22.6691 41.8989 22.1056 41.4224 21.7043C40.9459 21.3031 40.3125 21.1025 39.5222 21.1025C38.7319 21.1025 38.0985 21.3031 37.622 21.7043C37.1455 22.1056 36.9072 22.6691 36.9072 23.3951V24.4612H42.1371V23.3951Z" fill="white"/>
  </g>
  <defs>
    <clipPath id="susd-clip0">
      <rect y="0.753418" width="60" height="60" fill="white"/>
    </clipPath>
  </defs>
</svg>
