<?xml version="1.0" encoding="UTF-8"?>
<svg width="20px" height="20px" viewBox="0 0 20 20" version="1.1" xmlns="http://www.w3.org/2000/svg" xmlns:xlink="http://www.w3.org/1999/xlink">
    <!-- Generator: Sketch 57.1 (83088) - https://sketch.com -->
    <title>icon/coin/usdx</title>
    <desc>Created with Sketch.</desc>
    <g id="icon/coin/usdx" stroke="none" stroke-width="1" fill="none" fill-rule="evenodd">
        <path d="M8.57192609,1.6 L8.57192609,5.42731994 C7.14574876,5.4955972 5.8826715,5.97733123 5.65509001,7.20632197 C5.20372006,9.59223301 6.01922039,10.3091443 6.72092998,10.6884624 C7.42263957,11.0677805 9.49742415,11.4470987 9.49742415,11.4470987 C9.49742415,11.4470987 9.81983126,11.7429668 9.22053334,11.8264168 C8.050337,11.9096548 6.87624126,11.9235875 5.70439933,11.8681418 L5.70439933,11.8681418 L5.61336674,14.1819824 C5.61336674,14.1819824 6.50852059,14.257846 8.58709819,14.3223301 L8.58709819,14.3223301 L8.58709819,18.4 L3.27686345,18.4 C2.39494012,18.4 1.68,17.6850304 1.68,16.8030707 L1.68,16.8030707 L1.68,3.19692933 C1.68,2.32086111 2.38569882,1.60832369 3.26169135,1.6 L3.26169135,1.6 L8.57192609,1.6 Z M9.92224293,1.6 C12.9224725,1.6 15.6947991,3.20066941 17.1949139,5.79905167 C18.6950287,8.39743392 18.6950287,11.5987729 17.1949139,14.1971552 C15.6947991,16.7955374 12.9224725,18.3962068 9.92224293,18.3962068 L9.92224293,18.3962068 L9.36087526,18.3962068 L9.36087526,14.341296 L9.50121717,14.341296 C12.2966765,14.2881915 12.7821836,12.3157372 12.6001184,10.9615715 C12.4180533,9.60740573 12.0615089,9.38740122 11.4887622,9.11049898 C10.6457886,8.79203422 9.77972475,8.53841796 8.89812623,8.35186272 C8.59847727,8.294965 8.32537948,7.8890946 9.03846815,7.8890946 C9.95638015,7.87771506 12.232195,7.75633326 12.232195,7.75633326 L12.232195,7.75633326 L12.2777113,5.48042448 C11.5608296,5.39697449 10.4608525,5.47283811 9.36087526,5.44628584 L9.36087526,5.44628584 L9.36087526,1.6 Z" id="Combined-Shape" fill="#383F54"></path>
    </g>
</svg>