<?xml version="1.0" encoding="UTF-8"?>
<svg width="20px" height="20px" viewBox="0 0 20 20" version="1.1" xmlns="http://www.w3.org/2000/svg" xmlns:xlink="http://www.w3.org/1999/xlink">
    <!-- Generator: Sketch 57.1 (83088) - https://sketch.com -->
    <title>icon/coin/wbtc</title>
    <desc>Created with Sketch.</desc>
    <g id="icon/coin/wbtc" stroke="none" stroke-width="1" fill="none" fill-rule="evenodd">
        <path d="M10.0016964,0.733333521 C15.1182941,0.734351463 19.2658185,4.88170632 19.2666667,9.99830391 C19.261069,15.1147319 15.1147319,19.261069 9.99830392,19.2666667 C4.88051892,19.2658185 0.732315952,15.1162585 0.733333521,9.99830391 C0.734351464,4.88034929 4.88391144,0.732315952 10.0016964,0.733333521 Z M9.99830392,1.45594032 C5.28236284,1.45882396 1.46153798,5.28405909 1.46441999,10.0000002 C1.46730526,14.7159413 5.29254039,18.5367661 10.0084815,18.5338841 C14.7211997,18.5311685 18.5404979,14.7108525 18.5423638,9.99830391 C18.5367661,5.28304135 14.7135665,1.46289498 9.99830392,1.4610291 L9.99830392,1.45594032 Z M14.859801,15.3295802 L15.3805528,15.838458 C12.4125918,18.5758318 7.87676285,18.6380448 4.83753519,16.0250972 L4.62796282,15.838458 L5.13684073,15.3295802 C7.88919162,17.8464902 12.1074501,17.8464902 14.859801,15.3295802 Z M4.15813282,4.63303464 L4.66701072,5.14191253 C2.21463299,7.82647099 2.1548189,11.9033952 4.48756845,14.655874 L4.66701072,14.8597841 L4.15813282,15.3856246 C1.35709927,12.3486413 1.35709927,7.67001794 4.15813282,4.63303464 Z M15.8453449,4.61096631 C18.5827186,7.57892723 18.6449316,12.1149182 16.031984,15.1539949 L15.8453449,15.3635562 L15.336467,14.8546783 C17.7918235,12.1694579 17.8517103,8.0889656 15.5161272,5.33568316 L15.336467,5.13171803 L15.8453449,4.62284011 L15.8453449,4.61096631 Z M9.42498512,5.31153851 L9.42498512,6.75505547 L9.7841681,6.74763434 L9.7841681,6.74763434 L10.1408067,6.74657418 L10.1408067,5.31153851 L11.0364318,5.31153851 L11.0364318,6.7754106 C12.1949771,6.8839712 13.1109573,7.24018572 13.2127329,8.30204426 C13.2907609,9.07893119 12.9633828,9.5454026 12.4426311,9.81001909 C13.2992422,10.0152665 13.8352602,10.5241444 13.7283959,11.6640309 C13.6016004,13.021392 12.6273349,13.4206756 11.2146645,13.5322114 L11.0279505,13.5451828 L11.0279505,15.0243213 L10.1306292,15.0243213 L10.1306292,13.5570567 L9.41480757,13.5570567 L9.41480757,15.0311063 L8.51918246,15.0311063 L8.51918246,13.5350053 L6.71096967,13.5350053 L6.88907695,12.4646655 C6.88907695,12.4646655 7.41311647,12.472707 7.52123034,12.467346 L7.54044065,12.4646655 C7.69295863,12.4739707 7.82528765,12.37772 7.8668198,12.2398987 L7.87969258,12.16782 L7.87969258,8.13581083 C7.84373189,7.88900504 7.61880785,7.7149688 7.37081468,7.74227857 C7.37986139,7.73172408 6.85816732,7.73993313 6.74212362,7.74188767 L6.71945098,7.74227857 L6.71945098,6.78389189 L8.5344488,6.78389189 L8.5344488,5.31153851 L9.42498512,5.31153851 Z M9.52254692,10.4981541 L9.44364398,10.4987005 L9.44364398,12.4731467 C10.0509049,12.4731467 11.9575008,12.6003662 11.9575008,11.4876199 C11.9575008,10.3721596 10.200382,10.4885582 9.52254692,10.4981541 Z M9.51720969,7.80424914 L9.44534025,7.80504018 L9.44534025,9.59798663 C9.95082564,9.59798663 11.5419172,9.72181358 11.5419172,8.70405781 C11.5419172,7.69161204 10.0861737,7.7934774 9.51720969,7.80424914 Z M15.1641954,3.97147675 L15.3737677,4.15811586 L14.8648898,4.66699375 C12.1796694,2.21147174 8.09917708,2.15158096 5.34589464,4.48732141 L5.14192952,4.66699375 L4.62117779,4.15811586 C7.58913872,1.42074216 12.1249677,1.35852912 15.1641954,3.97147675 Z" id="Combined-Shape" fill="orange" fill-rule="nonzero"></path>
    </g>
</svg>