<svg id="Capa_1" enable-background="new 0 0 512 512" height="512" viewBox="0 0 512 512" width="512"
    xmlns="http://www.w3.org/2000/svg">
    <g>
        <g>
            <path d="m312.136 135.511c-15.479 15.482-35.807 23.224-56.135 23.224s-40.657-7.741-56.136-23.224c-30.957-30.955-30.957-81.333 0-112.298 15.478-15.472 35.807-23.213 56.135-23.213s40.657 7.741 56.135 23.214c30.958 30.964 30.958 81.342.001 112.297z" fill="#97de3d"/>
        </g>
        <g>
            <path d="m135.54 312.149c-15.469 15.482-35.797 23.224-56.136 23.224-20.328 0-40.657-7.741-56.136-23.224-30.969-30.997-31.081-81.189 0-112.298 30.979-30.986 81.356-30.943 112.271 0 31.035 31.042 31.039 81.253.001 112.298z" fill="#ffe14d"/>
        </g>
        <g>
            <path d="m488.731 312.149c-14.932 14.936-34.992 23.224-56.136 23.224h-.01c-20.338 0-40.657-7.741-56.125-23.224-31.034-31.042-31.038-81.252 0-112.298 15.469-15.482 35.797-23.224 56.125-23.224s40.667 7.741 56.146 23.224c30.97 30.998 31.08 81.19 0 112.298z" fill="#ff4d4d"/>
        </g>
        <g>
            <path d="m312.136 488.786c-15.272 15.256-35.454 23.214-56.136 23.214-20.328 0-40.657-7.741-56.136-23.214-30.957-30.965-30.957-81.343 0-112.298 15.479-15.482 35.807-23.224 56.136-23.224 20.328 0 40.657 7.741 56.135 23.224 30.958 30.956 30.958 81.334.001 112.298z" fill="#7ed8f6"/>
        </g>
        <g>
            <path d="m94.507 161.461c-6.785-4.753-8.433-14.108-3.68-20.894 13.603-19.428 30.348-36.177 49.768-49.779 6.785-4.752 16.137-3.104 20.89 3.683 4.752 6.787 3.103 16.142-3.682 20.894-16.547 11.59-30.814 25.861-42.406 42.415-4.752 6.786-14.104 8.435-20.89 3.681z" fill="#dfe7f4"/>
        </g>
        <g>
            <path d="m350.515 417.53c-4.752-6.787-3.103-16.142 3.682-20.894 16.547-11.59 30.814-25.861 42.406-42.415 4.753-6.788 14.105-8.435 20.89-3.682s8.433 14.108 3.68 20.894c-13.603 19.428-30.348 36.177-49.768 49.779-6.778 4.749-16.132 3.111-20.89-3.682z" fill="#c7cfe1"/>
        </g>
        <g>
            <path d="m140.595 421.212c-19.42-13.603-36.165-30.351-49.768-49.779-4.753-6.787-3.104-16.141 3.68-20.894 6.787-4.752 16.138-3.105 20.89 3.682 11.592 16.554 25.859 30.825 42.406 42.415 6.786 4.753 8.434 14.107 3.682 20.894-4.749 6.783-14.1 8.438-20.89 3.682z" fill="#dfe7f4"/>
        </g>
        <g>
            <path d="m396.603 157.78c-11.592-16.554-25.859-30.825-42.406-42.415-6.786-4.753-8.434-14.107-3.682-20.894 4.752-6.788 14.104-8.435 20.89-3.683 19.42 13.603 36.165 30.351 49.768 49.779 4.753 6.787 3.104 16.141-3.68 20.894-6.788 4.754-16.139 3.105-20.89-3.681z" fill="#c7cfe1"/>
        </g>
        <path d="m312.136 376.489c30.957 30.955 30.957 81.333 0 112.298-15.272 15.255-35.454 23.213-56.136 23.213v-158.735c20.328 0 40.657 7.741 56.136 23.224z" fill="#6aa9ff"/>
        <path d="m312.136 135.511c-15.479 15.482-35.807 23.224-56.135 23.224v-158.735c20.328 0 40.657 7.741 56.135 23.214 30.957 30.964 30.957 81.342 0 112.297z" fill="#59c36a"/>
        <path d="m135.54 312.149c-15.469 15.482-35.797 23.224-56.136 23.224v-158.745c20.328 0 40.667 7.741 56.136 23.224 31.034 31.041 31.038 81.252 0 112.297z" fill="#fabe2c"/>
        <path d="m488.731 312.149c-14.932 14.936-34.992 23.224-56.136 23.224h-.01v-158.745c20.328 0 40.667 7.741 56.146 23.224 30.97 30.997 31.08 81.189 0 112.297z" fill="#cd0000"/>
    </g>
</svg>