<svg height="464pt" viewBox="-8 0 464 464.00003" width="464pt"
    xmlns="http://www.w3.org/2000/svg">
    <path d="m407.359375 327.441406c26.289063-34.277344 40.570313-76.246094 40.640625-119.441406v48c-.078125 42.820312-14.121094 84.445312-40 118.558594v-46.558594zm0 0" fill="#ce893d"/>
    <path d="m408 328v46.558594c-11.433594 15.316406-24.890625 29.015625-40 40.722656v-47.28125l-.398438-.480469c14.980469-11.527343 28.351563-25.007812 39.757813-40.078125zm0 0" fill="#e6a71e"/>
    <path d="m224 0c123.679688 0 224 93.121094 224 208-.070312 43.195312-14.351562 85.164062-40.640625 119.441406-11.40625 15.070313-24.777344 28.550782-39.757813 40.078125-12.273437 9.644531-25.546874 17.933594-39.601562 24.71875-15.324219 7.472657-31.417969 13.242188-48 17.203125-36.820312 8.746094-75.179688 8.746094-112 0-16.582031-3.960937-32.675781-9.730468-48-17.203125-14.050781-6.785156-27.328125-15.074219-39.601562-24.71875-14.980469-11.527343-28.351563-25.007812-39.757813-40.078125-26.289063-34.277344-40.5703125-76.246094-40.640625-119.441406 0-114.878906 100.320312-208 224-208zm0 0" fill="#ffcb5a"/>
    <path d="m368 368v47.28125c-12.367188 9.714844-25.75 18.054688-39.921875 24.878906l-.078125-.160156v-47.761719c14.054688-6.785156 27.328125-15.074219 39.601562-24.71875zm0 0" fill="#ce893d"/>
    <path d="m328 440 .078125.160156c-15.238281 7.472656-31.253906 13.238282-47.757813 17.199219l-.320312-1.359375v-46.558594c16.582031-3.960937 32.675781-9.730468 48-17.203125zm0 0" fill="#e6a71e"/>
    <path d="m280.320312 457.359375c-18.445312 4.421875-37.351562 6.648437-56.320312 6.640625v-48c18.859375.035156 37.660156-2.167969 56-6.558594v46.558594zm0 0" fill="#ce893d"/>
    <path d="m224 416v48c-18.96875.007812-37.871094-2.21875-56.320312-6.640625l.320312-1.359375v-46.558594c18.339844 4.390625 37.140625 6.59375 56 6.558594zm0 0" fill="#e6a71e"/>
    <path d="m168 409.441406v46.558594l-.320312 1.359375c-16.503907-3.960937-32.519532-9.726563-47.757813-17.199219l.078125-.160156v-47.761719c15.324219 7.472657 31.417969 13.242188 48 17.203125zm0 0" fill="#ce893d"/>
    <path d="m80.398438 367.519531c12.273437 9.644531 25.550781 17.933594 39.601562 24.71875v47.761719l-.078125.160156c-14.152344-6.851562-27.535156-15.191406-39.921875-24.878906v-47.28125zm0 0" fill="#e6a71e"/>
    <path d="m40.640625 327.441406c11.40625 15.070313 24.777344 28.550782 39.757813 40.078125l-.398438.480469v47.28125c-15.109375-11.707031-28.566406-25.40625-40-40.722656v-46.558594zm0 0" fill="#ce893d"/>
    <path d="m0 208c.0703125 43.195312 14.351562 85.164062 40.640625 119.441406l-.640625.558594v46.558594c-25.878906-34.113282-39.921875-75.738282-40-118.558594zm0 0" fill="#e6a71e"/>
    <path d="m400 208c0-88.367188-78.796875-160-176-160s-176 71.632812-176 160 78.796875 160 176 160 176-71.632812 176-160zm0 0" fill="#e6a71e"/>
    <g fill="#ffcb5a">
        <path d="m333.945312 301.832031-10.9375-11.664062c9.347657-8.710938 17.269532-18.839844 23.464844-30.015625l14.015625 7.695312c-6.996093 12.660156-15.957031 24.132813-26.542969 33.984375zm0 0"/>
        <path d="m224 344c-83.816406 0-152-61.007812-152-136s68.183594-136 152-136 152 61.007812 152 136h-16c0-66.167969-61.007812-120-136-120s-136 53.832031-136 120 61.007812 120 136 120c26.6875.128906 52.910156-6.949219 75.902344-20.496094l8.195312 13.753906c-25.472656 15.015626-54.527344 22.875-84.097656 22.742188zm0 0"/>
    </g>
</svg>