<?xml version="1.0" encoding="iso-8859-1"?>
<!-- Generator: Adobe Illustrator 19.0.0, SVG Export Plug-In . SVG Version: 6.00 Build 0)  -->
<svg version="1.1" id="Capa_1"
	xmlns="http://www.w3.org/2000/svg"
	xmlns:xlink="http://www.w3.org/1999/xlink" x="0px" y="0px" viewBox="0 0 512 512" style="enable-background:new 0 0 512 512;" xml:space="preserve" fill="#657795">
	<g>
		<path d="M477.177,188.898H263.604v-19.653c0-23.876-19.574-42.589-43.449-42.697c-15.442-0.07-27.984-12.654-27.984-28.112V66.419
			c0-4.164-3.209-7.795-7.371-7.919c-4.306-0.129-7.837,3.323-7.837,7.601v32.965c0,23.899,19.547,42.585,43.446,42.691
			c15.443,0.068,27.987,12.653,27.987,28.112v19.029H94.293c-4.199,0-7.604,3.405-7.604,7.604s3.405,7.604,7.604,7.604h382.883
			c10.833,0,19.616,8.782,19.616,19.616v15.056H15.208v-15.056c0-10.833,8.782-19.615,19.615-19.615h23.983
			c4.199,0,7.604-3.405,7.604-7.604s-3.405-7.604-7.604-7.604H34.823C15.591,188.898,0,204.489,0,223.721V418.68
			c0,19.232,15.591,34.823,34.823,34.823h442.353c19.233,0,34.824-15.591,34.824-34.824v-22.66v-49.88v-49.879v-49.88v-22.66
			C512,204.489,496.409,188.898,477.177,188.898z M392.813,253.985h44.385v34.672h-44.385V253.985z M457.345,303.865v34.672H412.96
			v-34.672H457.345z M397.752,303.865v34.672h-44.385v-34.672H397.752z M333.219,253.985h44.386v34.672h-44.386V253.985z
			 M338.159,303.865v34.672h-44.386v-34.672H338.159z M273.626,253.985h44.385v34.672h0h-44.385V253.985z M214.032,353.744h44.385
			v34.672h-44.385V353.744z M174.587,338.537v-34.672h44.386v34.672H174.587z M234.181,338.537v-34.672h44.385v34.672H234.181z
			 M214.033,253.985h44.385v34.672h-44.385V253.985z M154.438,253.985h44.386v34.672h-44.386V253.985z M159.378,303.865v34.672
			h-44.385v-34.672H159.378z M94.846,253.985h44.385v34.672H94.846V253.985z M99.785,303.865v34.672H55.399v-34.672H99.785z
			 M15.208,253.986h64.43v34.672h-64.43V253.986z M15.208,303.865h24.984v34.672H15.208V303.865z M33.446,438.227
			c-10.173-0.713-18.238-9.195-18.238-19.546v-15.056h18.238V438.227z M15.208,388.417v-34.672h64.43v34.672H15.208z
			 M93.039,438.296H48.654v-34.672h44.385V438.296z M94.846,353.744h44.385v34.672H94.846V353.744z M152.634,438.296h-44.386
			v-34.672h44.386V438.296z M154.438,353.744h44.386v34.672h-44.386V353.744z M327.516,438.296H167.842v-34.672h110.973
			c4.199,0,7.604-3.405,7.604-7.604s-3.405-7.604-7.604-7.604h-5.189v-34.672h44.385v34.672h-3.71c-4.199,0-7.604,3.405-7.604,7.604
			s3.405,7.604,7.604,7.604h13.215V438.296z M333.219,353.744h44.386v34.672h-44.386V353.744z M387.108,438.296h-44.385v-34.672h0
			h44.385V438.296z M392.813,353.744h44.385v34.672h-44.385V353.744z M446.702,438.296h-44.386v-34.672h44.386V438.296z
			 M496.792,418.679c0,10.817-8.8,19.616-19.616,19.616H461.91v-34.672h34.882V418.679z M496.792,346.141v42.275h-44.386v-34.672
			h12.544c4.2,0,7.604-3.405,7.604-7.604v-42.275h24.238V346.141z M496.792,288.657h-44.386v-34.672h44.386V288.657z"/>
	</g>
</svg>
